{
    "asset" : {
        "generator" : "Khronos glTF Blender I/O v1.1.46",
        "version" : "2.0"
    },
    "scene" : 0,
    "scenes" : [
        {
            "name" : "Scene",
            "nodes" : [
                0
            ]
        }
    ],
    "nodes" : [
        {
            "mesh" : 0,
            "name" : "conrod"
        }
    ],
    "meshes" : [
        {
            "name" : "Vert.039",
            "primitives" : [
                {
                    "attributes" : {
                        "POSITION" : 0,
                        "NORMAL" : 1
                    },
                    "indices" : 2
                }
            ]
        }
    ],
    "accessors" : [
        {
            "bufferView" : 0,
            "componentType" : 5126,
            "count" : 4746,
            "max" : [
                4.532539367675781,
                6.000054359436035,
                6.0000152587890625
            ],
            "min" : [
                -47.46745681762695,
                -5.9999918937683105,
                -6
            ],
            "type" : "VEC3"
        },
        {
            "bufferView" : 1,
            "componentType" : 5126,
            "count" : 4746,
            "type" : "VEC3"
        },
        {
            "bufferView" : 2,
            "componentType" : 5123,
            "count" : 8076,
            "type" : "SCALAR"
        }
    ],
    "bufferViews" : [
        {
            "buffer" : 0,
            "byteLength" : 56952,
            "byteOffset" : 0
        },
        {
            "buffer" : 0,
            "byteLength" : 56952,
            "byteOffset" : 56952
        },
        {
            "buffer" : 0,
            "byteLength" : 16152,
            "byteOffset" : 113904
        }
    ],
    "buffers" : [
        {
            "byteLength" : 130056,
            "uri" : "data:application/octet-stream;base64,"
        }
    ]
}
