{
    "asset" : {
        "generator" : "Khronos glTF Blender I/O v1.1.46",
        "version" : "2.0"
    },
    "scene" : 0,
    "scenes" : [
        {
            "name" : "Scene",
            "nodes" : [
                0,
                1,
                2,
                3,
                4,
                5,
                6,
                7,
                8,
                9,
                10,
                11,
                12
            ]
        }
    ],
    "nodes" : [
        {
            "mesh" : 0,
            "name" : "crank1d0",
            "translation" : [
                0,
                0,
                161.35400390625
            ]
        },
        {
            "mesh" : 1,
            "name" : "crank2d120",
            "translation" : [
                0,
                0,
                111.75399780273438
            ]
        },
        {
            "mesh" : 2,
            "name" : "crank3d0",
            "translation" : [
                0,
                0,
                111.75399780273438
            ]
        },
        {
            "mesh" : 3,
            "name" : "crank4d120",
            "translation" : [
                0,
                0,
                62.15409851074219
            ]
        },
        {
            "mesh" : 4,
            "name" : "crank5d0",
            "translation" : [
                0,
                0,
                62.15409851074219
            ]
        },
        {
            "mesh" : 5,
            "name" : "crank6d120",
            "translation" : [
                0,
                0,
                12.615067481994629
            ]
        },
        {
            "mesh" : 6,
            "name" : "crankAxleForConrods5And6",
            "translation" : [
                -2.7586398124694824,
                4.7580976486206055,
                37.454017639160156
            ]
        },
        {
            "mesh" : 7,
            "name" : "crankAxleForConrods3And4",
            "translation" : [
                -2.7586774826049805,
                -4.768205642700195,
                86.9541015625
            ]
        },
        {
            "mesh" : 8,
            "name" : "crankAxleForConrods1And2",
            "translation" : [
                5.491396903991699,
                -0.005113229155540466,
                136.5540771484375
            ]
        },
        {
            "mesh" : 9,
            "name" : "codewheel",
            "translation" : [
                0,
                0,
                -36.88493347167969
            ]
        },
        {
            "mesh" : 10,
            "name" : "codewheelBackplate",
            "translation" : [
                0,
                0,
                12.615067481994629
            ]
        },
        {
            "mesh" : 11,
            "name" : "rearSpacerAxle",
            "translation" : [
                0,
                0,
                161.35400390625
            ]
        },
        {
            "mesh" : 12,
            "name" : "frontSpacerAxle",
            "translation" : [
                0,
                0,
                -36.88493347167969
            ]
        }
    ],
    "meshes" : [
        {
            "name" : "Vert.052",
            "primitives" : [
                {
                    "attributes" : {
                        "POSITION" : 0,
                        "NORMAL" : 1
                    },
                    "indices" : 2
                }
            ]
        },
        {
            "name" : "Vert.076",
            "primitives" : [
                {
                    "attributes" : {
                        "POSITION" : 3,
                        "NORMAL" : 4
                    },
                    "indices" : 5
                }
            ]
        },
        {
            "name" : "Vert.090",
            "primitives" : [
                {
                    "attributes" : {
                        "POSITION" : 6,
                        "NORMAL" : 7
                    },
                    "indices" : 8
                }
            ]
        },
        {
            "name" : "Vert.091",
            "primitives" : [
                {
                    "attributes" : {
                        "POSITION" : 9,
                        "NORMAL" : 10
                    },
                    "indices" : 11
                }
            ]
        },
        {
            "name" : "Vert.092",
            "primitives" : [
                {
                    "attributes" : {
                        "POSITION" : 12,
                        "NORMAL" : 13
                    },
                    "indices" : 14
                }
            ]
        },
        {
            "name" : "Vert.093",
            "primitives" : [
                {
                    "attributes" : {
                        "POSITION" : 15,
                        "NORMAL" : 16
                    },
                    "indices" : 17
                }
            ]
        },
        {
            "name" : "Vert.011",
            "primitives" : [
                {
                    "attributes" : {
                        "POSITION" : 18,
                        "NORMAL" : 19
                    },
                    "indices" : 20
                }
            ]
        },
        {
            "name" : "Vert.026",
            "primitives" : [
                {
                    "attributes" : {
                        "POSITION" : 21,
                        "NORMAL" : 22
                    },
                    "indices" : 23
                }
            ]
        },
        {
            "name" : "Vert.030",
            "primitives" : [
                {
                    "attributes" : {
                        "POSITION" : 24,
                        "NORMAL" : 25
                    },
                    "indices" : 26
                }
            ]
        },
        {
            "name" : "coil negative.004",
            "primitives" : [
                {
                    "attributes" : {
                        "POSITION" : 27,
                        "NORMAL" : 28
                    },
                    "indices" : 29
                }
            ]
        },
        {
            "name" : "coil negative.011",
            "primitives" : [
                {
                    "attributes" : {
                        "POSITION" : 30,
                        "NORMAL" : 31
                    },
                    "indices" : 32
                }
            ]
        },
        {
            "name" : "coil negative.013",
            "primitives" : [
                {
                    "attributes" : {
                        "POSITION" : 33,
                        "NORMAL" : 34
                    },
                    "indices" : 35
                }
            ]
        },
        {
            "name" : "coil negative.014",
            "primitives" : [
                {
                    "attributes" : {
                        "POSITION" : 36,
                        "NORMAL" : 37
                    },
                    "indices" : 38
                }
            ]
        }
    ],
    "accessors" : [
        {
            "bufferView" : 0,
            "componentType" : 5126,
            "count" : 2046,
            "max" : [
                12.491434097290039,
                12.494892120361328,
                1.0000762939453125
            ],
            "min" : [
                -12.508604049682617,
                -12.505146026611328,
                -12.549942016601562
            ],
            "type" : "VEC3"
        },
        {
            "bufferView" : 1,
            "componentType" : 5126,
            "count" : 2046,
            "type" : "VEC3"
        },
        {
            "bufferView" : 2,
            "componentType" : 5123,
            "count" : 3732,
            "type" : "SCALAR"
        },
        {
            "bufferView" : 3,
            "componentType" : 5126,
            "count" : 2058,
            "max" : [
                12.491378784179688,
                12.494974136352539,
                12.550064086914062
            ],
            "min" : [
                -12.508661270141602,
                -12.505060195922852,
                -0.9999465942382812
            ],
            "type" : "VEC3"
        },
        {
            "bufferView" : 4,
            "componentType" : 5126,
            "count" : 2058,
            "type" : "VEC3"
        },
        {
            "bufferView" : 5,
            "componentType" : 5123,
            "count" : 3732,
            "type" : "SCALAR"
        },
        {
            "bufferView" : 6,
            "componentType" : 5126,
            "count" : 2054,
            "max" : [
                12.484625816345215,
                12.488252639770508,
                1.0001068115234375
            ],
            "min" : [
                -12.502021789550781,
                -12.498401641845703,
                -12.549896240234375
            ],
            "type" : "VEC3"
        },
        {
            "bufferView" : 7,
            "componentType" : 5126,
            "count" : 2054,
            "type" : "VEC3"
        },
        {
            "bufferView" : 8,
            "componentType" : 5123,
            "count" : 3732,
            "type" : "SCALAR"
        },
        {
            "bufferView" : 9,
            "componentType" : 5126,
            "count" : 2066,
            "max" : [
                12.484719276428223,
                12.488247871398926,
                12.5499267578125
            ],
            "min" : [
                -12.501934051513672,
                -12.49840259552002,
                -1.0000801086425781
            ],
            "type" : "VEC3"
        },
        {
            "bufferView" : 10,
            "componentType" : 5126,
            "count" : 2066,
            "type" : "VEC3"
        },
        {
            "bufferView" : 11,
            "componentType" : 5123,
            "count" : 3732,
            "type" : "SCALAR"
        },
        {
            "bufferView" : 12,
            "componentType" : 5126,
            "count" : 2078,
            "max" : [
                12.48471736907959,
                12.488319396972656,
                0.999969482421875
            ],
            "min" : [
                -12.501934051513672,
                -12.498332023620605,
                -12.550033569335938
            ],
            "type" : "VEC3"
        },
        {
            "bufferView" : 13,
            "componentType" : 5126,
            "count" : 2078,
            "type" : "VEC3"
        },
        {
            "bufferView" : 14,
            "componentType" : 5123,
            "count" : 3732,
            "type" : "SCALAR"
        },
        {
            "bufferView" : 15,
            "componentType" : 5126,
            "count" : 2078,
            "max" : [
                12.484665870666504,
                12.488285064697266,
                12.588953971862793
            ],
            "min" : [
                -12.501983642578125,
                -12.49836540222168,
                -0.961054801940918
            ],
            "type" : "VEC3"
        },
        {
            "bufferView" : 16,
            "componentType" : 5126,
            "count" : 2078,
            "type" : "VEC3"
        },
        {
            "bufferView" : 17,
            "componentType" : 5123,
            "count" : 3732,
            "type" : "SCALAR"
        },
        {
            "bufferView" : 18,
            "componentType" : 5126,
            "count" : 192,
            "max" : [
                1.3970115184783936,
                1.3970108032226562,
                19.25
            ],
            "min" : [
                -1.3970117568969727,
                -1.3970108032226562,
                -19.25
            ],
            "type" : "VEC3"
        },
        {
            "bufferView" : 19,
            "componentType" : 5126,
            "count" : 192,
            "type" : "VEC3"
        },
        {
            "bufferView" : 20,
            "componentType" : 5123,
            "count" : 372,
            "type" : "SCALAR"
        },
        {
            "bufferView" : 21,
            "componentType" : 5126,
            "count" : 192,
            "max" : [
                1.3970112800598145,
                1.3970098495483398,
                19.25
            ],
            "min" : [
                -1.3970112800598145,
                -1.397010326385498,
                -19.25
            ],
            "type" : "VEC3"
        },
        {
            "bufferView" : 22,
            "componentType" : 5126,
            "count" : 192,
            "type" : "VEC3"
        },
        {
            "bufferView" : 23,
            "componentType" : 5123,
            "count" : 372,
            "type" : "SCALAR"
        },
        {
            "bufferView" : 24,
            "componentType" : 5126,
            "count" : 192,
            "max" : [
                1.397012710571289,
                1.397011399269104,
                19.249984741210938
            ],
            "min" : [
                -1.3970108032226562,
                -1.3970112800598145,
                -19.250015258789062
            ],
            "type" : "VEC3"
        },
        {
            "bufferView" : 25,
            "componentType" : 5126,
            "count" : 192,
            "type" : "VEC3"
        },
        {
            "bufferView" : 26,
            "componentType" : 5123,
            "count" : 372,
            "type" : "SCALAR"
        },
        {
            "bufferView" : 27,
            "componentType" : 5126,
            "count" : 9834,
            "max" : [
                32.74993896484375,
                32.75,
                25.19498062133789
            ],
            "min" : [
                -32.74997329711914,
                -32.74995422363281,
                -0.9000778198242188
            ],
            "type" : "VEC3"
        },
        {
            "bufferView" : 28,
            "componentType" : 5126,
            "count" : 9834,
            "type" : "VEC3"
        },
        {
            "bufferView" : 29,
            "componentType" : 5123,
            "count" : 18000,
            "type" : "SCALAR"
        },
        {
            "bufferView" : 30,
            "componentType" : 5126,
            "count" : 7164,
            "max" : [
                27.000072479248047,
                26.99979591369629,
                1.0000133514404297
            ],
            "min" : [
                -26.999881744384766,
                -27.00018310546875,
                -24.29505157470703
            ],
            "type" : "VEC3"
        },
        {
            "bufferView" : 31,
            "componentType" : 5126,
            "count" : 7164,
            "type" : "VEC3"
        },
        {
            "bufferView" : 32,
            "componentType" : 5123,
            "count" : 12024,
            "type" : "SCALAR"
        },
        {
            "bufferView" : 33,
            "componentType" : 5126,
            "count" : 2216,
            "max" : [
                12.500253677368164,
                12.500020027160645,
                50.40106201171875
            ],
            "min" : [
                -12.499968528747559,
                -12.500022888183594,
                -0.9990234375
            ],
            "type" : "VEC3"
        },
        {
            "bufferView" : 34,
            "componentType" : 5126,
            "count" : 2216,
            "type" : "VEC3"
        },
        {
            "bufferView" : 35,
            "componentType" : 5123,
            "count" : 3696,
            "type" : "SCALAR"
        },
        {
            "bufferView" : 36,
            "componentType" : 5126,
            "count" : 2432,
            "max" : [
                12.493480682373047,
                12.493326187133789,
                1.0000114440917969
            ],
            "min" : [
                -12.49327278137207,
                -12.493478775024414,
                -50.40007781982422
            ],
            "type" : "VEC3"
        },
        {
            "bufferView" : 37,
            "componentType" : 5126,
            "count" : 2432,
            "type" : "VEC3"
        },
        {
            "bufferView" : 38,
            "componentType" : 5123,
            "count" : 3696,
            "type" : "SCALAR"
        }
    ],
    "bufferViews" : [
        {
            "buffer" : 0,
            "byteLength" : 24552,
            "byteOffset" : 0
        },
        {
            "buffer" : 0,
            "byteLength" : 24552,
            "byteOffset" : 24552
        },
        {
            "buffer" : 0,
            "byteLength" : 7464,
            "byteOffset" : 49104
        },
        {
            "buffer" : 0,
            "byteLength" : 24696,
            "byteOffset" : 56568
        },
        {
            "buffer" : 0,
            "byteLength" : 24696,
            "byteOffset" : 81264
        },
        {
            "buffer" : 0,
            "byteLength" : 7464,
            "byteOffset" : 105960
        },
        {
            "buffer" : 0,
            "byteLength" : 24648,
            "byteOffset" : 113424
        },
        {
            "buffer" : 0,
            "byteLength" : 24648,
            "byteOffset" : 138072
        },
        {
            "buffer" : 0,
            "byteLength" : 7464,
            "byteOffset" : 162720
        },
        {
            "buffer" : 0,
            "byteLength" : 24792,
            "byteOffset" : 170184
        },
        {
            "buffer" : 0,
            "byteLength" : 24792,
            "byteOffset" : 194976
        },
        {
            "buffer" : 0,
            "byteLength" : 7464,
            "byteOffset" : 219768
        },
        {
            "buffer" : 0,
            "byteLength" : 24936,
            "byteOffset" : 227232
        },
        {
            "buffer" : 0,
            "byteLength" : 24936,
            "byteOffset" : 252168
        },
        {
            "buffer" : 0,
            "byteLength" : 7464,
            "byteOffset" : 277104
        },
        {
            "buffer" : 0,
            "byteLength" : 24936,
            "byteOffset" : 284568
        },
        {
            "buffer" : 0,
            "byteLength" : 24936,
            "byteOffset" : 309504
        },
        {
            "buffer" : 0,
            "byteLength" : 7464,
            "byteOffset" : 334440
        },
        {
            "buffer" : 0,
            "byteLength" : 2304,
            "byteOffset" : 341904
        },
        {
            "buffer" : 0,
            "byteLength" : 2304,
            "byteOffset" : 344208
        },
        {
            "buffer" : 0,
            "byteLength" : 744,
            "byteOffset" : 346512
        },
        {
            "buffer" : 0,
            "byteLength" : 2304,
            "byteOffset" : 347256
        },
        {
            "buffer" : 0,
            "byteLength" : 2304,
            "byteOffset" : 349560
        },
        {
            "buffer" : 0,
            "byteLength" : 744,
            "byteOffset" : 351864
        },
        {
            "buffer" : 0,
            "byteLength" : 2304,
            "byteOffset" : 352608
        },
        {
            "buffer" : 0,
            "byteLength" : 2304,
            "byteOffset" : 354912
        },
        {
            "buffer" : 0,
            "byteLength" : 744,
            "byteOffset" : 357216
        },
        {
            "buffer" : 0,
            "byteLength" : 118008,
            "byteOffset" : 357960
        },
        {
            "buffer" : 0,
            "byteLength" : 118008,
            "byteOffset" : 475968
        },
        {
            "buffer" : 0,
            "byteLength" : 36000,
            "byteOffset" : 593976
        },
        {
            "buffer" : 0,
            "byteLength" : 85968,
            "byteOffset" : 629976
        },
        {
            "buffer" : 0,
            "byteLength" : 85968,
            "byteOffset" : 715944
        },
        {
            "buffer" : 0,
            "byteLength" : 24048,
            "byteOffset" : 801912
        },
        {
            "buffer" : 0,
            "byteLength" : 26592,
            "byteOffset" : 825960
        },
        {
            "buffer" : 0,
            "byteLength" : 26592,
            "byteOffset" : 852552
        },
        {
            "buffer" : 0,
            "byteLength" : 7392,
            "byteOffset" : 879144
        },
        {
            "buffer" : 0,
            "byteLength" : 29184,
            "byteOffset" : 886536
        },
        {
            "buffer" : 0,
            "byteLength" : 29184,
            "byteOffset" : 915720
        },
        {
            "buffer" : 0,
            "byteLength" : 7392,
            "byteOffset" : 944904
        }
    ],
    "buffers" : [
        {
            "byteLength" : 952296,
            "uri" : "data:application/octet-stream;base64,"
        }
    ]
}
