{
    "asset" : {
        "generator" : "Khronos glTF Blender I/O v1.1.46",
        "version" : "2.0"
    },
    "scene" : 0,
    "scenes" : [
        {
            "name" : "Scene",
            "nodes" : [
                0,
                1,
                2,
                3,
                4,
                5,
                6,
                7,
                8,
                9,
                10,
                11,
                12,
                13
            ]
        }
    ],
    "nodes" : [
        {
            "mesh" : 0,
            "name" : "journalBottomForAxleOfCodewheelAndSensor"
        },
        {
            "mesh" : 1,
            "name" : "journalBottomForFrontFacingVHinge"
        },
        {
            "mesh" : 2,
            "name" : "journalBottomForRearFacingVHinge"
        },
        {
            "mesh" : 3,
            "name" : "journalTopForAxleOfCodewheelAndSensor"
        },
        {
            "mesh" : 4,
            "name" : "journalTopForFrontFacingVHinge"
        },
        {
            "mesh" : 5,
            "name" : "journalTopForRearFacingVHinge"
        },
        {
            "mesh" : 6,
            "name" : "journalBottomForAxleOfMainConrods1And2"
        },
        {
            "mesh" : 7,
            "name" : "journalBottomForAxleOfMainConrods3And4"
        },
        {
            "mesh" : 8,
            "name" : "journalBottomForAxleOfMainConrods5And6"
        },
        {
            "mesh" : 9,
            "name" : "journalBottomForAxleOfCodewheel"
        },
        {
            "mesh" : 10,
            "name" : "journalTopForAxleOfMainConrods1And2"
        },
        {
            "mesh" : 11,
            "name" : "journalTopForAxleOfMainConrods3And4"
        },
        {
            "mesh" : 12,
            "name" : "journalTopForAxleOfMainConrods5And6"
        },
        {
            "mesh" : 13,
            "name" : "journalTopForAxleOfCodewheel"
        }
    ],
    "meshes" : [
        {
            "name" : "Cube.004",
            "primitives" : [
                {
                    "attributes" : {
                        "POSITION" : 0,
                        "NORMAL" : 1
                    },
                    "indices" : 2
                }
            ]
        },
        {
            "name" : "Cylinder.003",
            "primitives" : [
                {
                    "attributes" : {
                        "POSITION" : 3,
                        "NORMAL" : 4
                    },
                    "indices" : 5
                }
            ]
        },
        {
            "name" : "Cylinder.002",
            "primitives" : [
                {
                    "attributes" : {
                        "POSITION" : 6,
                        "NORMAL" : 7
                    },
                    "indices" : 8
                }
            ]
        },
        {
            "name" : "Cube.045",
            "primitives" : [
                {
                    "attributes" : {
                        "POSITION" : 9,
                        "NORMAL" : 10
                    },
                    "indices" : 11
                }
            ]
        },
        {
            "name" : "Cylinder.001",
            "primitives" : [
                {
                    "attributes" : {
                        "POSITION" : 12,
                        "NORMAL" : 13
                    },
                    "indices" : 14
                }
            ]
        },
        {
            "name" : "Cylinder.004",
            "primitives" : [
                {
                    "attributes" : {
                        "POSITION" : 15,
                        "NORMAL" : 16
                    },
                    "indices" : 17
                }
            ]
        },
        {
            "name" : "Cube.047",
            "primitives" : [
                {
                    "attributes" : {
                        "POSITION" : 18,
                        "NORMAL" : 19
                    },
                    "indices" : 20
                }
            ]
        },
        {
            "name" : "Cube.040",
            "primitives" : [
                {
                    "attributes" : {
                        "POSITION" : 21,
                        "NORMAL" : 22
                    },
                    "indices" : 23
                }
            ]
        },
        {
            "name" : "Cube.042",
            "primitives" : [
                {
                    "attributes" : {
                        "POSITION" : 24,
                        "NORMAL" : 25
                    },
                    "indices" : 26
                }
            ]
        },
        {
            "name" : "Cube.044",
            "primitives" : [
                {
                    "attributes" : {
                        "POSITION" : 27,
                        "NORMAL" : 28
                    },
                    "indices" : 29
                }
            ]
        },
        {
            "name" : "Cube.048",
            "primitives" : [
                {
                    "attributes" : {
                        "POSITION" : 30,
                        "NORMAL" : 31
                    },
                    "indices" : 32
                }
            ]
        },
        {
            "name" : "Cube.041",
            "primitives" : [
                {
                    "attributes" : {
                        "POSITION" : 33,
                        "NORMAL" : 34
                    },
                    "indices" : 35
                }
            ]
        },
        {
            "name" : "Cube.043",
            "primitives" : [
                {
                    "attributes" : {
                        "POSITION" : 36,
                        "NORMAL" : 37
                    },
                    "indices" : 38
                }
            ]
        },
        {
            "name" : "Cube.006",
            "primitives" : [
                {
                    "attributes" : {
                        "POSITION" : 39,
                        "NORMAL" : 40
                    },
                    "indices" : 41
                }
            ]
        }
    ],
    "accessors" : [
        {
            "bufferView" : 0,
            "componentType" : 5126,
            "count" : 3989,
            "max" : [
                12.524049758911133,
                0.06009674072265625,
                -24.345966339111328
            ],
            "min" : [
                -12.524105072021484,
                -47.17002868652344,
                -49.34598922729492
            ],
            "type" : "VEC3"
        },
        {
            "bufferView" : 1,
            "componentType" : 5126,
            "count" : 3989,
            "type" : "VEC3"
        },
        {
            "bufferView" : 2,
            "componentType" : 5123,
            "count" : 7443,
            "type" : "SCALAR"
        },
        {
            "bufferView" : 3,
            "componentType" : 5126,
            "count" : 6590,
            "max" : [
                12.499967575073242,
                0.009883880615234375,
                223.3540496826172
            ],
            "min" : [
                -12.500049591064453,
                -47.220130920410156,
                198.35403442382812
            ],
            "type" : "VEC3"
        },
        {
            "bufferView" : 4,
            "componentType" : 5126,
            "count" : 6590,
            "type" : "VEC3"
        },
        {
            "bufferView" : 5,
            "componentType" : 5123,
            "count" : 11094,
            "type" : "SCALAR"
        },
        {
            "bufferView" : 6,
            "componentType" : 5126,
            "count" : 6602,
            "max" : [
                12.499967575073242,
                0.009883880615234375,
                -73.84596252441406
            ],
            "min" : [
                -12.500049591064453,
                -47.220130920410156,
                -98.84597778320312
            ],
            "type" : "VEC3"
        },
        {
            "bufferView" : 7,
            "componentType" : 5126,
            "count" : 6602,
            "type" : "VEC3"
        },
        {
            "bufferView" : 8,
            "componentType" : 5123,
            "count" : 11094,
            "type" : "SCALAR"
        },
        {
            "bufferView" : 9,
            "componentType" : 5126,
            "count" : 1974,
            "max" : [
                12.524011611938477,
                12.584056854248047,
                -31.828506469726562
            ],
            "min" : [
                -12.524145126342773,
                0.059864044189453125,
                -41.82851028442383
            ],
            "type" : "VEC3"
        },
        {
            "bufferView" : 10,
            "componentType" : 5126,
            "count" : 1974,
            "type" : "VEC3"
        },
        {
            "bufferView" : 11,
            "componentType" : 5123,
            "count" : 3480,
            "type" : "SCALAR"
        },
        {
            "bufferView" : 12,
            "componentType" : 5126,
            "count" : 1674,
            "max" : [
                12.499967575073242,
                12.519874572753906,
                215.85403442382812
            ],
            "min" : [
                -12.500032424926758,
                0.019866943359375,
                205.85403442382812
            ],
            "type" : "VEC3"
        },
        {
            "bufferView" : 13,
            "componentType" : 5126,
            "count" : 1674,
            "type" : "VEC3"
        },
        {
            "bufferView" : 14,
            "componentType" : 5123,
            "count" : 3132,
            "type" : "SCALAR"
        },
        {
            "bufferView" : 15,
            "componentType" : 5126,
            "count" : 1680,
            "max" : [
                12.499967575073242,
                12.509876251220703,
                -81.34597778320312
            ],
            "min" : [
                -12.500032424926758,
                0.009868621826171875,
                -91.34597778320312
            ],
            "type" : "VEC3"
        },
        {
            "bufferView" : 16,
            "componentType" : 5126,
            "count" : 1680,
            "type" : "VEC3"
        },
        {
            "bufferView" : 17,
            "componentType" : 5123,
            "count" : 3132,
            "type" : "SCALAR"
        },
        {
            "bufferView" : 18,
            "componentType" : 5126,
            "count" : 6916,
            "max" : [
                12.523984909057617,
                0.010120391845703125,
                173.85406494140625
            ],
            "min" : [
                -12.524169921875,
                -47.22000503540039,
                148.85403442382812
            ],
            "type" : "VEC3"
        },
        {
            "bufferView" : 19,
            "componentType" : 5126,
            "count" : 6916,
            "type" : "VEC3"
        },
        {
            "bufferView" : 20,
            "componentType" : 5123,
            "count" : 11322,
            "type" : "SCALAR"
        },
        {
            "bufferView" : 21,
            "componentType" : 5126,
            "count" : 6864,
            "max" : [
                12.524040222167969,
                0.010105133056640625,
                124.15406036376953
            ],
            "min" : [
                -12.524116516113281,
                -47.22002029418945,
                99.15404510498047
            ],
            "type" : "VEC3"
        },
        {
            "bufferView" : 22,
            "componentType" : 5126,
            "count" : 6864,
            "type" : "VEC3"
        },
        {
            "bufferView" : 23,
            "componentType" : 5123,
            "count" : 11322,
            "type" : "SCALAR"
        },
        {
            "bufferView" : 24,
            "componentType" : 5126,
            "count" : 6954,
            "max" : [
                12.524040222167969,
                0.010105133056640625,
                74.65406036376953
            ],
            "min" : [
                -12.524116516113281,
                -47.22002029418945,
                49.6540412902832
            ],
            "type" : "VEC3"
        },
        {
            "bufferView" : 25,
            "componentType" : 5126,
            "count" : 6954,
            "type" : "VEC3"
        },
        {
            "bufferView" : 26,
            "componentType" : 5123,
            "count" : 11322,
            "type" : "SCALAR"
        },
        {
            "bufferView" : 27,
            "componentType" : 5126,
            "count" : 7018,
            "max" : [
                12.524040222167969,
                0.010105133056640625,
                25.15406036376953
            ],
            "min" : [
                -12.524116516113281,
                -47.22002410888672,
                0.15404212474822998
            ],
            "type" : "VEC3"
        },
        {
            "bufferView" : 28,
            "componentType" : 5126,
            "count" : 7018,
            "type" : "VEC3"
        },
        {
            "bufferView" : 29,
            "componentType" : 5123,
            "count" : 11322,
            "type" : "SCALAR"
        },
        {
            "bufferView" : 30,
            "componentType" : 5126,
            "count" : 1984,
            "max" : [
                12.523946762084961,
                12.534080505371094,
                166.3715362548828
            ],
            "min" : [
                -12.524209976196289,
                0.0098876953125,
                156.37152099609375
            ],
            "type" : "VEC3"
        },
        {
            "bufferView" : 31,
            "componentType" : 5126,
            "count" : 1984,
            "type" : "VEC3"
        },
        {
            "bufferView" : 32,
            "componentType" : 5123,
            "count" : 3480,
            "type" : "SCALAR"
        },
        {
            "bufferView" : 33,
            "componentType" : 5126,
            "count" : 2010,
            "max" : [
                12.52400016784668,
                12.534065246582031,
                116.67152404785156
            ],
            "min" : [
                -12.524154663085938,
                0.0098724365234375,
                106.67151641845703
            ],
            "type" : "VEC3"
        },
        {
            "bufferView" : 34,
            "componentType" : 5126,
            "count" : 2010,
            "type" : "VEC3"
        },
        {
            "bufferView" : 35,
            "componentType" : 5123,
            "count" : 3480,
            "type" : "SCALAR"
        },
        {
            "bufferView" : 36,
            "componentType" : 5126,
            "count" : 1964,
            "max" : [
                12.52400016784668,
                12.534065246582031,
                67.17152404785156
            ],
            "min" : [
                -12.524154663085938,
                0.0098724365234375,
                57.1715202331543
            ],
            "type" : "VEC3"
        },
        {
            "bufferView" : 37,
            "componentType" : 5126,
            "count" : 1964,
            "type" : "VEC3"
        },
        {
            "bufferView" : 38,
            "componentType" : 5123,
            "count" : 3480,
            "type" : "SCALAR"
        },
        {
            "bufferView" : 39,
            "componentType" : 5126,
            "count" : 2000,
            "max" : [
                12.52400016784668,
                12.534065246582031,
                17.671524047851562
            ],
            "min" : [
                -12.524154663085938,
                0.0098724365234375,
                7.6715192794799805
            ],
            "type" : "VEC3"
        },
        {
            "bufferView" : 40,
            "componentType" : 5126,
            "count" : 2000,
            "type" : "VEC3"
        },
        {
            "bufferView" : 41,
            "componentType" : 5123,
            "count" : 3480,
            "type" : "SCALAR"
        }
    ],
    "bufferViews" : [
        {
            "buffer" : 0,
            "byteLength" : 47868,
            "byteOffset" : 0
        },
        {
            "buffer" : 0,
            "byteLength" : 47868,
            "byteOffset" : 47868
        },
        {
            "buffer" : 0,
            "byteLength" : 14886,
            "byteOffset" : 95736
        },
        {
            "buffer" : 0,
            "byteLength" : 79080,
            "byteOffset" : 110624
        },
        {
            "buffer" : 0,
            "byteLength" : 79080,
            "byteOffset" : 189704
        },
        {
            "buffer" : 0,
            "byteLength" : 22188,
            "byteOffset" : 268784
        },
        {
            "buffer" : 0,
            "byteLength" : 79224,
            "byteOffset" : 290972
        },
        {
            "buffer" : 0,
            "byteLength" : 79224,
            "byteOffset" : 370196
        },
        {
            "buffer" : 0,
            "byteLength" : 22188,
            "byteOffset" : 449420
        },
        {
            "buffer" : 0,
            "byteLength" : 23688,
            "byteOffset" : 471608
        },
        {
            "buffer" : 0,
            "byteLength" : 23688,
            "byteOffset" : 495296
        },
        {
            "buffer" : 0,
            "byteLength" : 6960,
            "byteOffset" : 518984
        },
        {
            "buffer" : 0,
            "byteLength" : 20088,
            "byteOffset" : 525944
        },
        {
            "buffer" : 0,
            "byteLength" : 20088,
            "byteOffset" : 546032
        },
        {
            "buffer" : 0,
            "byteLength" : 6264,
            "byteOffset" : 566120
        },
        {
            "buffer" : 0,
            "byteLength" : 20160,
            "byteOffset" : 572384
        },
        {
            "buffer" : 0,
            "byteLength" : 20160,
            "byteOffset" : 592544
        },
        {
            "buffer" : 0,
            "byteLength" : 6264,
            "byteOffset" : 612704
        },
        {
            "buffer" : 0,
            "byteLength" : 82992,
            "byteOffset" : 618968
        },
        {
            "buffer" : 0,
            "byteLength" : 82992,
            "byteOffset" : 701960
        },
        {
            "buffer" : 0,
            "byteLength" : 22644,
            "byteOffset" : 784952
        },
        {
            "buffer" : 0,
            "byteLength" : 82368,
            "byteOffset" : 807596
        },
        {
            "buffer" : 0,
            "byteLength" : 82368,
            "byteOffset" : 889964
        },
        {
            "buffer" : 0,
            "byteLength" : 22644,
            "byteOffset" : 972332
        },
        {
            "buffer" : 0,
            "byteLength" : 83448,
            "byteOffset" : 994976
        },
        {
            "buffer" : 0,
            "byteLength" : 83448,
            "byteOffset" : 1078424
        },
        {
            "buffer" : 0,
            "byteLength" : 22644,
            "byteOffset" : 1161872
        },
        {
            "buffer" : 0,
            "byteLength" : 84216,
            "byteOffset" : 1184516
        },
        {
            "buffer" : 0,
            "byteLength" : 84216,
            "byteOffset" : 1268732
        },
        {
            "buffer" : 0,
            "byteLength" : 22644,
            "byteOffset" : 1352948
        },
        {
            "buffer" : 0,
            "byteLength" : 23808,
            "byteOffset" : 1375592
        },
        {
            "buffer" : 0,
            "byteLength" : 23808,
            "byteOffset" : 1399400
        },
        {
            "buffer" : 0,
            "byteLength" : 6960,
            "byteOffset" : 1423208
        },
        {
            "buffer" : 0,
            "byteLength" : 24120,
            "byteOffset" : 1430168
        },
        {
            "buffer" : 0,
            "byteLength" : 24120,
            "byteOffset" : 1454288
        },
        {
            "buffer" : 0,
            "byteLength" : 6960,
            "byteOffset" : 1478408
        },
        {
            "buffer" : 0,
            "byteLength" : 23568,
            "byteOffset" : 1485368
        },
        {
            "buffer" : 0,
            "byteLength" : 23568,
            "byteOffset" : 1508936
        },
        {
            "buffer" : 0,
            "byteLength" : 6960,
            "byteOffset" : 1532504
        },
        {
            "buffer" : 0,
            "byteLength" : 24000,
            "byteOffset" : 1539464
        },
        {
            "buffer" : 0,
            "byteLength" : 24000,
            "byteOffset" : 1563464
        },
        {
            "buffer" : 0,
            "byteLength" : 6960,
            "byteOffset" : 1587464
        }
    ],
    "buffers" : [
        {
            "byteLength" : 1594424,
            "uri" : "data:application/octet-stream;base64,"
        }
    ]
}
