{
    "asset" : {
        "generator" : "Khronos glTF Blender I/O v1.1.46",
        "version" : "2.0"
    },
    "scene" : 0,
    "scenes" : [
        {
            "name" : "Scene",
            "nodes" : [
                0
            ]
        }
    ],
    "nodes" : [
        {
            "mesh" : 0,
            "name" : "plunger"
        }
    ],
    "meshes" : [
        {
            "name" : "Vert.066",
            "primitives" : [
                {
                    "attributes" : {
                        "POSITION" : 0,
                        "NORMAL" : 1
                    },
                    "indices" : 2
                }
            ]
        }
    ],
    "accessors" : [
        {
            "bufferView" : 0,
            "componentType" : 5126,
            "count" : 1888,
            "max" : [
                55.999996185302734,
                2.899998426437378,
                2.899993896484375
            ],
            "min" : [
                -3.5000038146972656,
                -2.900000810623169,
                -2.9000091552734375
            ],
            "type" : "VEC3"
        },
        {
            "bufferView" : 1,
            "componentType" : 5126,
            "count" : 1888,
            "type" : "VEC3"
        },
        {
            "bufferView" : 2,
            "componentType" : 5123,
            "count" : 3432,
            "type" : "SCALAR"
        }
    ],
    "bufferViews" : [
        {
            "buffer" : 0,
            "byteLength" : 22656,
            "byteOffset" : 0
        },
        {
            "buffer" : 0,
            "byteLength" : 22656,
            "byteOffset" : 22656
        },
        {
            "buffer" : 0,
            "byteLength" : 6864,
            "byteOffset" : 45312
        }
    ],
    "buffers" : [
        {
            "byteLength" : 52176,
            "uri" : "data:application/octet-stream;base64,"
        }
    ]
}
