{
    "asset" : {
        "generator" : "Khronos glTF Blender I/O v1.1.46",
        "version" : "2.0"
    },
    "scene" : 0,
    "scenes" : [
        {
            "name" : "Scene",
            "nodes" : [
                0,
                1,
                2,
                3,
                4,
                5
            ]
        }
    ],
    "nodes" : [
        {
            "mesh" : 0,
            "name" : "leftLEDEncoder"
        },
        {
            "mesh" : 1,
            "name" : "leftLEDEncoderPeg"
        },
        {
            "mesh" : 2,
            "name" : "rightLEDEncoder"
        },
        {
            "mesh" : 3,
            "name" : "rightLEDEncoderPeg"
        },
        {
            "mesh" : 4,
            "name" : "reflectiveEncoder"
        },
        {
            "mesh" : 5,
            "name" : "reflectiveEncoderPeg"
        }
    ],
    "meshes" : [
        {
            "name" : "Vert.007",
            "primitives" : [
                {
                    "attributes" : {
                        "POSITION" : 0,
                        "NORMAL" : 1
                    },
                    "indices" : 2
                }
            ]
        },
        {
            "name" : "Vert.057",
            "primitives" : [
                {
                    "attributes" : {
                        "POSITION" : 3,
                        "NORMAL" : 4
                    },
                    "indices" : 5
                }
            ]
        },
        {
            "name" : "Vert.008",
            "primitives" : [
                {
                    "attributes" : {
                        "POSITION" : 6,
                        "NORMAL" : 7
                    },
                    "indices" : 8
                }
            ]
        },
        {
            "name" : "Vert.037",
            "primitives" : [
                {
                    "attributes" : {
                        "POSITION" : 9,
                        "NORMAL" : 10
                    },
                    "indices" : 11
                }
            ]
        },
        {
            "name" : "coil negative.043",
            "primitives" : [
                {
                    "attributes" : {
                        "POSITION" : 12,
                        "NORMAL" : 13
                    },
                    "indices" : 14
                }
            ]
        },
        {
            "name" : "Vert.051",
            "primitives" : [
                {
                    "attributes" : {
                        "POSITION" : 15,
                        "NORMAL" : 16
                    },
                    "indices" : 17
                }
            ]
        }
    ],
    "accessors" : [
        {
            "bufferView" : 0,
            "componentType" : 5126,
            "count" : 571,
            "max" : [
                -26.65704917907715,
                4.887989044189453,
                -0.012989521026611328
            ],
            "min" : [
                -45.15705108642578,
                -5.312007904052734,
                -33.11299133300781
            ],
            "type" : "VEC3"
        },
        {
            "bufferView" : 1,
            "componentType" : 5126,
            "count" : 571,
            "type" : "VEC3"
        },
        {
            "bufferView" : 2,
            "componentType" : 5123,
            "count" : 1068,
            "type" : "SCALAR"
        },
        {
            "bufferView" : 3,
            "componentType" : 5126,
            "count" : 1878,
            "max" : [
                -38.40003967285156,
                5.409873962402344,
                -0.012979388236999512
            ],
            "min" : [
                -107.03304290771484,
                -5.390132904052734,
                -26.81298828125
            ],
            "type" : "VEC3"
        },
        {
            "bufferView" : 4,
            "componentType" : 5126,
            "count" : 1878,
            "type" : "VEC3"
        },
        {
            "bufferView" : 5,
            "componentType" : 5123,
            "count" : 3258,
            "type" : "SCALAR"
        },
        {
            "bufferView" : 6,
            "componentType" : 5126,
            "count" : 547,
            "max" : [
                48.16695785522461,
                4.887989044189453,
                -0.012989282608032227
            ],
            "min" : [
                29.666954040527344,
                -5.312007904052734,
                -33.11299133300781
            ],
            "type" : "VEC3"
        },
        {
            "bufferView" : 7,
            "componentType" : 5126,
            "count" : 547,
            "type" : "VEC3"
        },
        {
            "bufferView" : 8,
            "componentType" : 5123,
            "count" : 1068,
            "type" : "SCALAR"
        },
        {
            "bufferView" : 9,
            "componentType" : 5126,
            "count" : 1874,
            "max" : [
                110.0999526977539,
                5.187992095947266,
                -0.012989044189453125
            ],
            "min" : [
                41.46695327758789,
                -5.612007141113281,
                -26.812992095947266
            ],
            "type" : "VEC3"
        },
        {
            "bufferView" : 10,
            "componentType" : 5126,
            "count" : 1874,
            "type" : "VEC3"
        },
        {
            "bufferView" : 11,
            "componentType" : 5123,
            "count" : 3258,
            "type" : "SCALAR"
        },
        {
            "bufferView" : 12,
            "componentType" : 5126,
            "count" : 494,
            "max" : [
                8.949956893920898,
                -13.560001373291016,
                -14.75002384185791
            ],
            "min" : [
                -9.450044631958008,
                -29.960002899169922,
                -35.350032806396484
            ],
            "type" : "VEC3"
        },
        {
            "bufferView" : 13,
            "componentType" : 5126,
            "count" : 494,
            "type" : "VEC3"
        },
        {
            "bufferView" : 14,
            "componentType" : 5123,
            "count" : 978,
            "type" : "SCALAR"
        },
        {
            "bufferView" : 15,
            "componentType" : 5126,
            "count" : 3204,
            "max" : [
                8.949958801269531,
                -13.560005187988281,
                -16.349578857421875
            ],
            "min" : [
                -9.450044631958008,
                -29.960006713867188,
                -72.84598541259766
            ],
            "type" : "VEC3"
        },
        {
            "bufferView" : 16,
            "componentType" : 5126,
            "count" : 3204,
            "type" : "VEC3"
        },
        {
            "bufferView" : 17,
            "componentType" : 5123,
            "count" : 5262,
            "type" : "SCALAR"
        }
    ],
    "bufferViews" : [
        {
            "buffer" : 0,
            "byteLength" : 6852,
            "byteOffset" : 0
        },
        {
            "buffer" : 0,
            "byteLength" : 6852,
            "byteOffset" : 6852
        },
        {
            "buffer" : 0,
            "byteLength" : 2136,
            "byteOffset" : 13704
        },
        {
            "buffer" : 0,
            "byteLength" : 22536,
            "byteOffset" : 15840
        },
        {
            "buffer" : 0,
            "byteLength" : 22536,
            "byteOffset" : 38376
        },
        {
            "buffer" : 0,
            "byteLength" : 6516,
            "byteOffset" : 60912
        },
        {
            "buffer" : 0,
            "byteLength" : 6564,
            "byteOffset" : 67428
        },
        {
            "buffer" : 0,
            "byteLength" : 6564,
            "byteOffset" : 73992
        },
        {
            "buffer" : 0,
            "byteLength" : 2136,
            "byteOffset" : 80556
        },
        {
            "buffer" : 0,
            "byteLength" : 22488,
            "byteOffset" : 82692
        },
        {
            "buffer" : 0,
            "byteLength" : 22488,
            "byteOffset" : 105180
        },
        {
            "buffer" : 0,
            "byteLength" : 6516,
            "byteOffset" : 127668
        },
        {
            "buffer" : 0,
            "byteLength" : 5928,
            "byteOffset" : 134184
        },
        {
            "buffer" : 0,
            "byteLength" : 5928,
            "byteOffset" : 140112
        },
        {
            "buffer" : 0,
            "byteLength" : 1956,
            "byteOffset" : 146040
        },
        {
            "buffer" : 0,
            "byteLength" : 38448,
            "byteOffset" : 147996
        },
        {
            "buffer" : 0,
            "byteLength" : 38448,
            "byteOffset" : 186444
        },
        {
            "buffer" : 0,
            "byteLength" : 10524,
            "byteOffset" : 224892
        }
    ],
    "buffers" : [
        {
            "byteLength" : 235416,
            "uri" : "data:application/octet-stream;base64,"
        }
    ]
}
