<svg
   width="32mm"
   height="32mm"
   viewBox="0 0 32 32"
>
  <g>
    <g>
      <path
         fill="#ffffff"
         d="m 77.012649,313.27057 c -3.710374,-2.17207 -13.678117,-12.01042 -29.982877,-29.59368 -3.177085,-3.42621 -3.98207,-4.57405 -3.207813,-4.57405 0.153506,0 0.957178,0.45996 1.785938,1.02213 5.42439,3.67949 9.989766,4.42616 12.670699,2.07229 1.793642,-1.57481 2.065304,-2.60078 2.065304,-7.79986 0,-3.64857 0.07539,-4.61986 0.372881,-4.80417 0.981831,-0.60828 1.261224,-0.0551 4.13476,8.1867 4.729206,13.56417 7.111363,17.99238 10.744156,19.97243 1.153427,0.62867 1.737243,0.77247 3.13912,0.77316 2.295665,0.001 3.764393,-0.73253 5.78005,-2.88727 2.775815,-2.96735 4.454805,-6.85548 10.111015,-23.41457 3.293599,-9.64234 3.769288,-10.71563 4.74922,-10.71563 0.574873,0 0.667028,0.1313 0.742798,1.05834 0.0476,0.58208 -0.11014,3.57006 -0.350482,6.63994 -0.490331,6.26305 -0.31736,8.84737 0.732302,10.9411 0.94514,1.88523 1.68147,2.26417 4.38063,2.25442 1.98593,-0.007 2.56188,-0.12286 4.27917,-0.85957 1.09141,-0.4682 2.52016,-1.20811 3.175,-1.64423 1.36916,-0.91184 1.5875,-0.9613 1.5875,-0.35962 0,0.4943 0.14181,0.33617 -9.98349,11.13291 -12.043252,12.84188 -19.541699,20.15249 -22.96146,22.38629 -1.640504,1.07158 -2.425633,1.11375 -3.964421,0.21294 z m -0.404463,-17.52359 c -1.956459,-1.13501 -2.779199,-3.33508 -2.005142,-5.36192 1.161039,-3.04014 4.692874,-3.97835 7.0295,-1.86735 1.292637,1.16782 1.696363,2.16643 1.538801,3.80621 -0.304038,3.16418 -3.834977,5.00576 -6.563159,3.42306 z"
      />
      <path
         fill="#ffffff"
         d="m 77.144941,313.24497 c -1.192258,-0.63719 -4.157647,-3.12214 -7.906419,-6.62546 -4.485614,-4.19192 -25.689742,-26.51805 -25.694062,-27.05365 -0.0042,-0.51946 0.97919,-0.0702 2.728518,1.24641 5.084268,3.82672 10.565413,4.30063 12.989074,1.12305 1.42129,-1.86341 1.585975,-2.62507 1.598957,-7.39505 0.0075,-2.7424 0.11286,-4.44483 0.276641,-4.46847 0.412298,-0.0595 0.955572,1.26108 3.443165,8.36959 3.858546,11.0261 5.734317,14.96368 8.526992,17.89965 1.774195,1.86522 3.515899,2.6717 5.769932,2.6717 2.80085,0 4.921964,-1.31372 7.116426,-4.40759 2.33367,-3.29013 3.965546,-7.20893 8.218366,-19.73564 3.469383,-10.2191 4.236442,-12.23827 4.865386,-12.80746 0.751993,-0.68054 0.7929,-0.21447 0.392623,4.47341 -0.506087,5.92708 -0.493895,10.76148 0.03154,12.50497 0.485545,1.61113 1.73554,3.16038 2.96408,3.6737 2.13897,0.89372 5.76695,0.0661 8.90205,-2.03082 1.95272,-1.30605 2.55381,-1.55478 2.55381,-1.05673 0,0.68682 -22.13584,23.83985 -27.516661,28.78112 -5.70929,5.2429 -7.121308,5.98048 -9.260416,4.83727 z m -0.131702,-17.36103 c -1.812502,-0.94507 -2.514132,-2.10011 -2.514132,-4.13883 0,-2.54587 1.730047,-4.1756 4.432631,-4.1756 1.675421,0 2.901201,0.78555 3.703307,2.3733 0.756023,1.49653 0.752377,2.53812 -0.01394,3.98728 -1.061468,2.00727 -3.725365,2.9354 -5.607851,1.95385 z" 
      />
      <path
         fill="#ffffff"
         d="m 76.422353,312.44584 c -3.376178,-2.25453 -12.701496,-11.41119 -24.26314,-23.82434 -3.04637,-3.27073 -6.075285,-6.50958 -6.730923,-7.19745 -0.655639,-0.68788 -1.115547,-1.3272 -1.022019,-1.42073 0.09353,-0.0935 0.762162,0.2646 1.485853,0.79584 1.829422,1.34292 4.87458,2.69798 6.87816,3.0607 3.680616,0.66633 6.193108,-0.6016 7.619518,-3.84522 0.374006,-0.85047 0.461385,-1.86563 0.471207,-5.47437 0.0075,-2.7424 0.11286,-4.44483 0.276641,-4.46847 0.412298,-0.0595 0.955572,1.26108 3.443165,8.36959 3.858546,11.0261 5.734317,14.96368 8.526992,17.89965 1.774195,1.86522 3.515899,2.6717 5.769932,2.6717 2.80085,0 4.921964,-1.31372 7.116426,-4.40759 2.33367,-3.29013 3.965546,-7.20893 8.218366,-19.73564 3.469383,-10.2191 4.236442,-12.23827 4.865386,-12.80746 0.751993,-0.68054 0.7929,-0.21447 0.392623,4.47341 -0.507656,5.94546 -0.494149,10.76059 0.03511,12.517 0.50959,1.69112 1.9218,3.34209 3.22731,3.77294 2.04064,0.67347 6.58281,-0.43446 9.2716,-2.26154 0.54008,-0.367 1.08725,-0.66727 1.21592,-0.66727 0.31179,0 -0.49191,0.88768 -9.29877,10.27037 -12.180554,12.97697 -19.634438,20.24708 -23.200169,22.62815 -1.474833,0.98485 -2.415813,0.9084 -4.299191,-0.34927 z m 0.296228,-16.91363 c -3.511868,-2.14148 -2.457231,-7.21245 1.629203,-7.83364 1.246928,-0.18954 3.093633,0.64578 3.911841,1.76946 0.810323,1.11285 0.891323,3.12392 0.177011,4.39487 -1.114454,1.9829 -3.879842,2.79021 -5.718055,1.66931 z"
      />
      <path
         fill="#ffffff"
         d="m 76.422353,312.44584 c -3.376178,-2.25453 -12.701496,-11.41119 -24.26314,-23.82434 -3.04637,-3.27073 -6.075285,-6.50958 -6.730923,-7.19745 -0.655639,-0.68788 -1.121654,-1.32109 -1.035589,-1.40716 0.238527,-0.23853 4.480449,2.7885 10.829556,7.72794 16.470164,12.81336 21.245959,15.38021 26.028914,13.98976 3.935576,-1.1441 7.941966,-3.84204 22.616689,-15.23027 5.1626,-4.00642 8.85763,-6.60773 9.38594,-6.60773 0.27593,0 -0.69495,1.06849 -9.33209,10.27037 -12.180551,12.97697 -19.634435,20.24708 -23.200166,22.62815 -1.474833,0.98485 -2.415813,0.9084 -4.299191,-0.34927 z m 0.296228,-16.91363 c -3.511868,-2.14148 -2.457231,-7.21245 1.629203,-7.83364 1.246928,-0.18954 3.093633,0.64578 3.911841,1.76946 0.810323,1.11285 0.891323,3.12392 0.177011,4.39487 -1.114454,1.9829 -3.879842,2.79021 -5.718055,1.66931 z"
      />
      <path
         fill="#ffffff"
         d="m 77.144941,312.67166 c -2.027516,-1.22708 -5.735082,-4.59877 -12.170833,-11.06823 -6.436752,-6.47047 -19.084808,-19.85452 -19.26999,-20.39131 -0.247463,-0.71733 3.164591,1.60432 8.873967,6.03808 11.259117,8.74354 16.276879,12.19185 20.185606,13.87195 2.677821,1.15102 5.38227,1.20336 7.899058,0.15286 3.366945,-1.40534 7.784642,-4.39834 16.839483,-11.40876 9.580908,-7.41772 10.901898,-8.39746 11.469838,-8.50683 0.31388,-0.0605 0.71907,-0.1946 0.90043,-0.29812 0.44104,-0.25175 -0.0947,0.34416 -6.68305,7.43425 -7.959907,8.56604 -20.622291,21.15673 -23.232149,23.10061 -2.464485,1.8356 -3.261958,2.01383 -4.81236,1.0755 z m 0.390247,-16.91607 c -0.440206,-0.12807 -1.206421,-0.65179 -1.702694,-1.16382 -0.774886,-0.79948 -0.916136,-1.14623 -1.000152,-2.45525 -0.07675,-1.19577 0.01884,-1.71015 0.443508,-2.38662 1.518224,-2.41842 4.820803,-2.58927 6.707558,-0.34699 1.604155,1.90643 0.921864,4.87275 -1.388801,6.03796 -1.254966,0.63284 -1.780272,0.68688 -3.059419,0.31472 z"
      />
      <path
         fill="#ffffff"
         d="m 77.144941,312.67166 c -3.006098,-1.81933 -12.64665,-11.17808 -23.541339,-22.85319 -3.259044,-3.4925 -6.402047,-6.85352 -6.98445,-7.46893 -0.582404,-0.61542 -1.000042,-1.17781 -0.928087,-1.24976 0.07196,-0.072 2.743437,1.90801 5.936624,4.39993 12.672918,9.88978 17.660969,13.41057 21.873587,15.43936 3.34363,1.61028 4.980014,1.915 7.261061,1.35209 4.346292,-1.07255 7.861826,-3.40694 23.766973,-15.78176 3.4925,-2.7173 6.64766,-5.09411 7.01146,-5.2818 l 0.66146,-0.34126 -0.67898,0.7619 c -8.29186,9.30439 -26.188815,27.43256 -29.565949,29.94792 -2.464485,1.8356 -3.261958,2.01383 -4.81236,1.0755 z m 0.390247,-16.91607 c -0.440206,-0.12807 -1.206421,-0.65179 -1.702694,-1.16382 -0.774886,-0.79948 -0.916136,-1.14623 -1.000152,-2.45525 -0.07675,-1.19577 0.01884,-1.71015 0.443508,-2.38662 1.518224,-2.41842 4.820803,-2.58927 6.707558,-0.34699 1.604155,1.90643 0.921864,4.87275 -1.388801,6.03796 -1.254966,0.63284 -1.780272,0.68688 -3.059419,0.31472 z"
      />
      <path
         fill="#ffffff"
         d="m 77.264114,295.41385 c -0.443775,-0.20123 -1.128384,-0.74797 -1.521354,-1.21499 -0.904311,-1.07471 -0.994897,-3.12351 -0.19603,-4.43369 1.731026,-2.83898 6.425631,-1.89665 7.046802,1.41447 0.232428,1.23895 -0.511977,3.10903 -1.524614,3.83008 -0.987923,0.70347 -2.735337,0.88907 -3.804804,0.40413 z"
      />
    </g>
    <path
       fill="#ffffff"
       d="m 59.365696,107.80555 c -1.509872,-0.47953 -3.532153,-1.94103 -7.260471,-5.24716 -1.021993,-0.90626 -1.464259,-1.31143 -3.658059,-3.351232 C 45.297928,96.278987 40.406546,91.321156 35.740341,86.327713 21.273096,70.84589 2.64055,50.202195 1.0043774,47.842441 0.77012092,47.504587 0.71217567,47.324736 0.80702248,47.229889 1.1500409,46.886871 2.5186216,47.633284 5.0207841,49.528042 c 2.8392914,2.150048 4.6779699,3.23098 7.2759129,4.277399 2.581852,1.039938 4.823464,1.522174 7.078595,1.522813 4.404944,0.0013 7.443803,-1.952914 9.534444,-6.131188 0.995035,-1.988642 1.084431,-2.7329 1.227588,-10.220254 0.107413,-5.617841 0.2424,-8.179224 0.441549,-8.378373 0.168767,-0.168767 0.532519,0.250422 0.971934,1.120061 0.61623,1.219571 1.624254,3.969713 3.771197,10.28877 5.75138,16.927933 7.585765,21.747765 10.363383,27.229714 3.066245,6.051586 6.84256,10.31002 10.488883,11.827988 1.659587,0.690888 2.46219,0.831465 4.706655,0.824384 2.426063,-0.0077 3.37633,-0.219522 5.303301,-1.182406 4.477843,-2.237523 8.579136,-8.043544 12.418373,-17.580153 1.807879,-4.490742 3.351178,-8.92528 8.668296,-24.907599 6.456463,-19.40699 7.035547,-20.9724 8.105842,-21.912131 0.510165,-0.447929 0.745784,-0.47218 0.876936,-0.09025 0.161985,0.471713 0.0646,3.28162 -0.262683,7.579148 -0.52602,6.907183 -0.619647,8.959567 -0.626289,13.728757 -0.0084,6.040114 0.208603,8.097663 1.073105,10.17429 0.896123,2.152584 2.800014,4.407444 4.393954,5.203943 1.14277,0.57105 1.95681,0.700332 3.92767,0.623775 4.02781,-0.156456 7.50581,-1.409916 11.7803,-4.245586 1.15595,-0.76685 2.39224,-1.541482 2.74729,-1.721403 0.64925,-0.328997 1.13298,-0.371218 1.22005,-0.106486 0.13297,0.404284 -5.95979,7.387751 -17.00605,19.49216 -4.022323,4.407627 -9.387691,10.238334 -10.805834,11.743023 -0.425449,0.451412 -1.646137,1.758297 -2.712642,2.904189 -3.023223,3.248261 -6.160884,6.571614 -9.712964,10.287792 -5.868478,6.139589 -11.908571,11.824261 -14.906103,14.028971 -2.457649,1.80762 -4.371482,2.41267 -5.997781,1.89616 z m 3.401399,-0.63306 c 1.522219,-0.74678 4.886033,-3.49264 8.838253,-7.214603 4.598676,-4.33076 13.550765,-13.589733 21.66325,-22.405874 6.448882,-7.008244 21.236332,-23.431315 24.273582,-26.958447 2.84806,-3.307427 2.6871,-3.374942 -1.41854,-0.595032 -3.16632,2.143902 -4.77552,3.37621 -12.56377,9.621194 C 89.117487,71.200314 86.535973,73.234963 81.777386,76.787835 72.923856,83.398087 67.661987,86.340093 63.343172,87.094733 61.532865,87.411055 59.062191,87.288329 57.155988,86.787397 53.896174,85.930749 50.245953,84.063739 45.034157,80.587335 39.618299,76.974816 33.978027,72.686221 21.863783,62.969679 8.6193892,52.346672 2.5902592,47.854183 2.1580833,48.286359 1.9016171,48.542824 2.4896585,49.23503 11.316102,59.06661 c 16.819621,18.735 24.324798,26.793747 33.267553,35.721311 8.453409,8.439049 12.437304,11.789819 15.034579,12.645279 0.861563,0.28378 2.278041,0.1665 3.148861,-0.26071 z"
    />
    <path
       fill="#ffffff"
       d="m 59.365696,107.80555 c -1.509872,-0.47953 -3.532153,-1.94103 -7.260471,-5.24716 -1.021993,-0.90626 -1.464259,-1.31143 -3.658059,-3.351232 C 45.297928,96.278987 40.406546,91.321156 35.740341,86.327713 21.273096,70.84589 2.64055,50.202195 1.0043774,47.842441 0.77012092,47.504587 0.71217567,47.324736 0.80702248,47.229889 1.1500409,46.886871 2.5186216,47.633284 5.0207841,49.528042 c 2.8392914,2.150048 4.6779699,3.23098 7.2759129,4.277399 2.581852,1.039938 4.823464,1.522174 7.078595,1.522813 4.404944,0.0013 7.443803,-1.952914 9.534444,-6.131188 0.995035,-1.988642 1.084431,-2.7329 1.227588,-10.220254 0.107413,-5.617841 0.2424,-8.179224 0.441549,-8.378373 0.168767,-0.168767 0.532519,0.250422 0.971934,1.120061 0.61623,1.219571 1.624254,3.969713 3.771197,10.28877 5.75138,16.927933 7.585765,21.747765 10.363383,27.229714 3.066245,6.051586 6.84256,10.31002 10.488883,11.827988 1.659587,0.690888 2.46219,0.831465 4.706655,0.824384 2.426063,-0.0077 3.37633,-0.219522 5.303301,-1.182406 4.477843,-2.237523 8.579136,-8.043544 12.418373,-17.580153 1.807879,-4.490742 3.351178,-8.92528 8.668296,-24.907599 6.456463,-19.40699 7.035547,-20.9724 8.105842,-21.912131 0.510165,-0.447929 0.745784,-0.47218 0.876936,-0.09025 0.161985,0.471713 0.0646,3.28162 -0.262683,7.579148 -0.52602,6.907183 -0.619647,8.959567 -0.626289,13.728757 -0.0084,6.040114 0.208603,8.097663 1.073105,10.17429 0.896123,2.152584 2.800014,4.407444 4.393954,5.203943 1.14277,0.57105 1.95681,0.700332 3.92767,0.623775 4.02781,-0.156456 7.50581,-1.409916 11.7803,-4.245586 1.15595,-0.76685 2.39224,-1.541482 2.74729,-1.721403 0.64925,-0.328997 1.13298,-0.371218 1.22005,-0.106486 0.13297,0.404284 -5.95979,7.387751 -17.00605,19.49216 -4.022323,4.407627 -9.387691,10.238334 -10.805834,11.743023 -0.425449,0.451412 -1.646137,1.758297 -2.712642,2.904189 -3.023223,3.248261 -6.160884,6.571614 -9.712964,10.287792 -5.868478,6.139589 -11.908571,11.824261 -14.906103,14.028971 -2.457649,1.80762 -4.371482,2.41267 -5.997781,1.89616 z m 3.401399,-0.63306 c 1.522219,-0.74678 4.886033,-3.49264 8.838253,-7.214603 4.598676,-4.33076 13.550765,-13.589733 21.66325,-22.405874 6.448882,-7.008244 21.236332,-23.431315 24.273582,-26.958447 2.84806,-3.307427 2.6871,-3.374942 -1.41854,-0.595032 -3.16632,2.143902 -4.77552,3.37621 -12.56377,9.621194 C 89.117487,71.200314 86.535973,73.234963 81.777386,76.787835 72.923856,83.398087 67.661987,86.340093 63.343172,87.094733 61.532865,87.411055 59.062191,87.288329 57.155988,86.787397 53.896174,85.930749 50.245953,84.063739 45.034157,80.587335 39.618299,76.974816 33.978027,72.686221 21.863783,62.969679 8.6193892,52.346672 2.5902592,47.854183 2.1580833,48.286359 1.9016171,48.542824 2.4896585,49.23503 11.316102,59.06661 c 16.819621,18.735 24.324798,26.793747 33.267553,35.721311 8.453409,8.439049 12.437304,11.789819 15.034579,12.645279 0.861563,0.28378 2.278041,0.1665 3.148861,-0.26071 z"
    />
    <path
       fill="#ffffff"
       d="M 59.28662,81.846954 C 55.931319,81.429209 53.167398,79.717974 50.221727,76.234575 46.007763,71.251358 42.955812,64.387592 36.574732,45.542804 32.254564,32.78436 31.38885,30.579919 30.698597,30.579919 c -0.172766,0 -0.205921,0.08549 -0.367276,0.947018 -0.03902,0.208344 -0.124615,3.191451 -0.190209,6.629126 -0.119783,6.277592 -0.220345,7.904905 -0.571592,9.249677 -0.6855,2.624478 -2.98391,5.609035 -5.207286,6.761819 -1.65708,0.859171 -2.65468,1.076243 -4.960698,1.079424 -2.23662,0.0031 -3.610366,-0.233392 -5.827035,-1.003071 C 10.779642,53.273472 8.4044359,51.954231 5.3489497,49.67526 2.5996184,47.624638 1.752596,47.112274 1.0803173,47.093159 0.6911912,47.082098 0.57996339,46.820704 0.91042178,46.693895 1.2009835,46.582396 1.8859679,46.971069 4.7546691,48.875191 c 4.6220262,3.067904 7.6681049,4.502672 11.3007369,5.322886 1.619247,0.365611 4.346857,0.405857 5.648013,0.08334 2.768632,-0.686269 5.504316,-2.923351 6.548307,-5.354823 0.77771,-1.8113 0.969579,-3.784764 1.06557,-10.959929 0.06636,-4.960205 0.184249,-7.41189 0.38107,-7.924796 0.08792,-0.229129 0.731053,-0.598366 1.042221,-0.598366 0.138348,0 0.437784,0.212116 0.665413,0.471371 0.864122,0.984181 1.807626,3.40349 4.912879,12.597477 3.59297,10.638014 5.333956,15.457555 7.371933,20.407584 4.174092,10.138427 7.474246,14.772212 12.259761,17.214078 1.470378,0.750277 2.440329,0.953538 4.550227,0.953538 3.613309,0 5.675547,-0.862098 8.448466,-3.531801 4.603122,-4.431779 7.06683,-9.186235 12.139436,-23.426645 0.742147,-2.083439 3.352521,-9.811106 5.800833,-17.172593 4.576228,-13.75962 5.408493,-16.178161 6.278748,-18.24588 1.036485,-2.462679 1.704633,-3.282996 2.673998,-3.282996 1.399815,0 1.43287,0.782869 0.56779,13.447656 -0.807433,11.82083 -0.514751,15.953269 1.404796,19.834598 1.458154,2.94839 2.545803,3.607894 6.250083,3.789788 2.32275,0.114055 4.60091,-0.105546 6.01709,-0.58001 2.40137,-0.804532 5.6389,-2.439549 8.28861,-4.185917 1.4287,-0.94162 1.88158,-1.128833 2.05776,-0.85064 0.17362,0.274144 0.13664,0.333513 -0.17109,0.274687 -0.38899,-0.07436 -1.27343,0.412043 -3.818,2.099746 -2.27736,1.510466 -4.52676,2.683671 -6.18632,3.226548 -2.47803,0.810617 -5.90679,1.242902 -7.59704,0.957804 -2.32517,-0.39219 -4.300623,-2.078779 -5.776441,-4.931764 -1.161144,-2.244673 -1.349575,-3.492211 -1.430405,-9.47018 -0.06787,-5.019595 0.05391,-8.318734 0.542359,-14.692549 0.377732,-4.929097 0.485983,-7.473572 0.339187,-7.972749 -0.26485,-0.900629 -1.207105,-0.243938 -1.992269,1.388485 -0.853612,1.774732 -1.945213,4.913067 -6.763834,19.445911 -5.875538,17.720484 -7.531901,22.433907 -9.649427,27.458886 -1.56799,3.720904 -2.91345,6.300852 -4.67778,8.96974 -3.697954,5.593867 -7.162532,8.01569 -11.798214,8.247232 -0.729204,0.03642 -1.702336,0.01934 -2.162516,-0.03795 z"
    />
    <path
       fill="#ffffff"
       d="m 59.365696,107.80555 c -1.509872,-0.47953 -3.532153,-1.94103 -7.260471,-5.24716 -1.021993,-0.90626 -1.464259,-1.31143 -3.658059,-3.351232 C 45.297928,96.278987 40.406546,91.321156 35.740341,86.327713 21.273096,70.84589 2.64055,50.202195 1.0043774,47.842441 0.77012092,47.504587 0.71217567,47.324736 0.80702248,47.229889 1.1500409,46.886871 2.5186216,47.633284 5.0207841,49.528042 c 2.8392914,2.150048 4.6779699,3.23098 7.2759129,4.277399 2.581852,1.039938 4.823464,1.522174 7.078595,1.522813 4.404944,0.0013 7.443803,-1.952914 9.534444,-6.131188 0.995035,-1.988642 1.084431,-2.7329 1.227588,-10.220254 0.107413,-5.617841 0.2424,-8.179224 0.441549,-8.378373 0.168767,-0.168767 0.532519,0.250422 0.971934,1.120061 0.61623,1.219571 1.624254,3.969713 3.771197,10.28877 5.75138,16.927933 7.585765,21.747765 10.363383,27.229714 3.066245,6.051586 6.84256,10.31002 10.488883,11.827988 1.659587,0.690888 2.46219,0.831465 4.706655,0.824384 2.426063,-0.0077 3.37633,-0.219522 5.303301,-1.182406 4.477843,-2.237523 8.579136,-8.043544 12.418373,-17.580153 1.807879,-4.490742 3.351178,-8.92528 8.668296,-24.907599 6.456463,-19.40699 7.035547,-20.9724 8.105842,-21.912131 0.510165,-0.447929 0.745784,-0.47218 0.876936,-0.09025 0.161985,0.471713 0.0646,3.28162 -0.262683,7.579148 -0.52602,6.907183 -0.619647,8.959567 -0.626289,13.728757 -0.0084,6.040114 0.208603,8.097663 1.073105,10.17429 0.896123,2.152584 2.800014,4.407444 4.393954,5.203943 1.14277,0.57105 1.95681,0.700332 3.92767,0.623775 4.02781,-0.156456 7.50581,-1.409916 11.7803,-4.245586 1.15595,-0.76685 2.39224,-1.541482 2.74729,-1.721403 0.64925,-0.328997 1.13298,-0.371218 1.22005,-0.106486 0.13297,0.404284 -5.95979,7.387751 -17.00605,19.49216 -4.022323,4.407627 -9.387691,10.238334 -10.805834,11.743023 -0.425449,0.451412 -1.646137,1.758297 -2.712642,2.904189 -3.023223,3.248261 -6.160884,6.571614 -9.712964,10.287792 -5.868478,6.139589 -11.908571,11.824261 -14.906103,14.028971 -2.457649,1.80762 -4.371482,2.41267 -5.997781,1.89616 z m 3.401399,-0.63306 c 1.522219,-0.74678 4.886033,-3.49264 8.838253,-7.214603 4.598676,-4.33076 13.550765,-13.589733 21.66325,-22.405874 6.448882,-7.008244 21.236332,-23.431315 24.273582,-26.958447 2.84806,-3.307427 2.6871,-3.374942 -1.41854,-0.595032 -3.16632,2.143902 -4.77552,3.37621 -12.56377,9.621194 C 89.117487,71.200314 86.535973,73.234963 81.777386,76.787835 72.923856,83.398087 67.661987,86.340093 63.343172,87.094733 61.532865,87.411055 59.062191,87.288329 57.155988,86.787397 53.896174,85.930749 50.245953,84.063739 45.034157,80.587335 39.618299,76.974816 33.978027,72.686221 21.863783,62.969679 8.6193892,52.346672 2.5902592,47.854183 2.1580833,48.286359 1.9016171,48.542824 2.4896585,49.23503 11.316102,59.06661 c 16.819621,18.735 24.324798,26.793747 33.267553,35.721311 8.453409,8.439049 12.437304,11.789819 15.034579,12.645279 0.861563,0.28378 2.278041,0.1665 3.148861,-0.26071 z"
    />
    <path
       fill="#ffffff"
       d="m 59.68443,107.02282 c -0.38028,-0.10219 -0.948491,-0.33324 -1.262691,-0.51343 C 54.026734,103.98875 40.707013,90.775191 22.866476,71.237502 18.554081,66.514875 5.3771952,51.771063 4.8782344,51.110194 4.5822723,50.718195 4.3738801,50.36371 4.4151407,50.322449 c 0.1619784,-0.161978 3.8444179,2.692422 12.3978793,9.610072 21.465033,17.359939 29.236015,22.94234 36.664886,26.338768 4.469026,2.043208 7.141784,2.42236 10.667558,1.513277 5.001307,-1.289533 9.289528,-3.729052 17.910635,-10.189153 4.956759,-3.714276 7.098789,-5.409405 24.471091,-19.365579 7.74102,-6.218801 10.59462,-8.386207 10.78636,-8.192584 0.10211,0.103114 -7.04443,8.222875 -12.98949,14.758412 -11.595841,12.747562 -24.286843,26.087662 -32.264595,33.914811 -4.077238,4.000267 -4.960761,4.805237 -6.72505,6.127147 -1.789522,1.34082 -2.818307,1.93145 -3.81767,2.19175 -0.893106,0.23262 -0.942954,0.23245 -1.832315,-0.007 z"
    />
    <path
       fill="#ffffff"
       d="m 59.176293,75.864125 c -0.994941,-0.217038 -1.918395,-0.76738 -2.906287,-1.732032 -1.408384,-1.375252 -1.937581,-2.725765 -1.925482,-4.913839 0.02179,-3.940007 2.482749,-6.562994 6.157594,-6.562994 3.714805,0 6.705094,2.86183 6.67379,6.38709 -0.01554,1.749383 -0.85686,3.926508 -2.015237,5.214903 -1.223218,1.360512 -3.863633,2.069493 -5.984378,1.606872 z"
    />
    <path
       fill="#ffffff"
       d="m 59.176293,75.864125 c -0.994941,-0.217038 -1.918395,-0.76738 -2.906287,-1.732032 -1.408384,-1.375252 -1.937581,-2.725765 -1.925482,-4.913839 0.02179,-3.940007 2.482749,-6.562994 6.157594,-6.562994 3.714805,0 6.705094,2.86183 6.67379,6.38709 -0.01554,1.749383 -0.85686,3.926508 -2.015237,5.214903 -1.223218,1.360512 -3.863633,2.069493 -5.984378,1.606872 z"
    />
    <path
       fill="#ffffff"
       d="m 59.365696,107.80555 c -1.509872,-0.47953 -3.532153,-1.94103 -7.260471,-5.24716 -1.021993,-0.90626 -1.464259,-1.31143 -3.658059,-3.351232 C 45.297928,96.278987 40.406546,91.321156 35.740341,86.327713 21.273096,70.84589 2.64055,50.202195 1.0043774,47.842441 0.77012092,47.504587 0.71217567,47.324736 0.80702248,47.229889 1.1500409,46.886871 2.5186216,47.633284 5.0207841,49.528042 c 2.8392914,2.150048 4.6779699,3.23098 7.2759129,4.277399 2.581852,1.039938 4.823464,1.522174 7.078595,1.522813 4.404944,0.0013 7.443803,-1.952914 9.534444,-6.131188 0.995035,-1.988642 1.084431,-2.7329 1.227588,-10.220254 0.107413,-5.617841 0.2424,-8.179224 0.441549,-8.378373 0.168767,-0.168767 0.532519,0.250422 0.971934,1.120061 0.61623,1.219571 1.624254,3.969713 3.771197,10.28877 5.75138,16.927933 7.585765,21.747765 10.363383,27.229714 3.066245,6.051586 6.84256,10.31002 10.488883,11.827988 1.659587,0.690888 2.46219,0.831465 4.706655,0.824384 2.426063,-0.0077 3.37633,-0.219522 5.303301,-1.182406 4.477843,-2.237523 8.579136,-8.043544 12.418373,-17.580153 1.807879,-4.490742 3.351178,-8.92528 8.668296,-24.907599 6.456463,-19.40699 7.035547,-20.9724 8.105842,-21.912131 0.510165,-0.447929 0.745784,-0.47218 0.876936,-0.09025 0.161985,0.471713 0.0646,3.28162 -0.262683,7.579148 -0.52602,6.907183 -0.619647,8.959567 -0.626289,13.728757 -0.0084,6.040114 0.208603,8.097663 1.073105,10.17429 0.896123,2.152584 2.800014,4.407444 4.393954,5.203943 1.14277,0.57105 1.95681,0.700332 3.92767,0.623775 4.02781,-0.156456 7.50581,-1.409916 11.7803,-4.245586 1.15595,-0.76685 2.39224,-1.541482 2.74729,-1.721403 0.64925,-0.328997 1.13298,-0.371218 1.22005,-0.106486 0.13297,0.404284 -5.95979,7.387751 -17.00605,19.49216 -4.022323,4.407627 -9.387691,10.238334 -10.805834,11.743023 -0.425449,0.451412 -1.646137,1.758297 -2.712642,2.904189 -3.023223,3.248261 -6.160884,6.571614 -9.712964,10.287792 -5.868478,6.139589 -11.908571,11.824261 -14.906103,14.028971 -2.457649,1.80762 -4.371482,2.41267 -5.997781,1.89616 z m 3.401399,-0.63306 c 1.522219,-0.74678 4.886033,-3.49264 8.838253,-7.214603 4.598676,-4.33076 13.550765,-13.589733 21.66325,-22.405874 6.448882,-7.008244 21.236332,-23.431315 24.273582,-26.958447 2.84806,-3.307427 2.6871,-3.374942 -1.41854,-0.595032 -3.16632,2.143902 -4.77552,3.37621 -12.56377,9.621194 C 89.117487,71.200314 86.535973,73.234963 81.777386,76.787835 72.923856,83.398087 67.661987,86.340093 63.343172,87.094733 61.532865,87.411055 59.062191,87.288329 57.155988,86.787397 53.896174,85.930749 50.245953,84.063739 45.034157,80.587335 39.618299,76.974816 33.978027,72.686221 21.863783,62.969679 8.6193892,52.346672 2.5902592,47.854183 2.1580833,48.286359 1.9016171,48.542824 2.4896585,49.23503 11.316102,59.06661 c 16.819621,18.735 24.324798,26.793747 33.267553,35.721311 8.453409,8.439049 12.437304,11.789819 15.034579,12.645279 0.861563,0.28378 2.278041,0.1665 3.148861,-0.26071 z"
    />
    <path
       fill="#ffffff"
       d="m 59.365696,107.80555 c -1.509872,-0.47953 -3.532153,-1.94103 -7.260471,-5.24716 -1.021993,-0.90626 -1.464259,-1.31143 -3.658059,-3.351232 C 45.297928,96.278987 40.406546,91.321156 35.740341,86.327713 21.273096,70.84589 2.64055,50.202195 1.0043774,47.842441 0.77012092,47.504587 0.71217567,47.324736 0.80702248,47.229889 1.1500409,46.886871 2.5186216,47.633284 5.0207841,49.528042 c 2.8392914,2.150048 4.6779699,3.23098 7.2759129,4.277399 2.581852,1.039938 4.823464,1.522174 7.078595,1.522813 4.404944,0.0013 7.443803,-1.952914 9.534444,-6.131188 0.995035,-1.988642 1.084431,-2.7329 1.227588,-10.220254 0.107413,-5.617841 0.2424,-8.179224 0.441549,-8.378373 0.168767,-0.168767 0.532519,0.250422 0.971934,1.120061 0.61623,1.219571 1.624254,3.969713 3.771197,10.28877 5.75138,16.927933 7.585765,21.747765 10.363383,27.229714 3.066245,6.051586 6.84256,10.31002 10.488883,11.827988 1.659587,0.690888 2.46219,0.831465 4.706655,0.824384 2.426063,-0.0077 3.37633,-0.219522 5.303301,-1.182406 4.477843,-2.237523 8.579136,-8.043544 12.418373,-17.580153 1.807879,-4.490742 3.351178,-8.92528 8.668296,-24.907599 6.456463,-19.40699 7.035547,-20.9724 8.105842,-21.912131 0.510165,-0.447929 0.745784,-0.47218 0.876936,-0.09025 0.161985,0.471713 0.0646,3.28162 -0.262683,7.579148 -0.52602,6.907183 -0.619647,8.959567 -0.626289,13.728757 -0.0084,6.040114 0.208603,8.097663 1.073105,10.17429 0.896123,2.152584 2.800014,4.407444 4.393954,5.203943 1.14277,0.57105 1.95681,0.700332 3.92767,0.623775 4.02781,-0.156456 7.50581,-1.409916 11.7803,-4.245586 1.15595,-0.76685 2.39224,-1.541482 2.74729,-1.721403 0.64925,-0.328997 1.13298,-0.371218 1.22005,-0.106486 0.13297,0.404284 -5.95979,7.387751 -17.00605,19.49216 -4.022323,4.407627 -9.387691,10.238334 -10.805834,11.743023 -0.425449,0.451412 -1.646137,1.758297 -2.712642,2.904189 -3.023223,3.248261 -6.160884,6.571614 -9.712964,10.287792 -5.868478,6.139589 -11.908571,11.824261 -14.906103,14.028971 -2.457649,1.80762 -4.371482,2.41267 -5.997781,1.89616 z m 3.401399,-0.63306 c 1.522219,-0.74678 4.886033,-3.49264 8.838253,-7.214603 4.598676,-4.33076 13.550765,-13.589733 21.66325,-22.405874 6.448882,-7.008244 21.236332,-23.431315 24.273582,-26.958447 2.84806,-3.307427 2.6871,-3.374942 -1.41854,-0.595032 -3.16632,2.143902 -4.77552,3.37621 -12.56377,9.621194 C 89.117487,71.200314 86.535973,73.234963 81.777386,76.787835 72.923856,83.398087 67.661987,86.340093 63.343172,87.094733 61.532865,87.411055 59.062191,87.288329 57.155988,86.787397 53.896174,85.930749 50.245953,84.063739 45.034157,80.587335 39.618299,76.974816 33.978027,72.686221 21.863783,62.969679 8.6193892,52.346672 2.5902592,47.854183 2.1580833,48.286359 1.9016171,48.542824 2.4896585,49.23503 11.316102,59.06661 c 16.819621,18.735 24.324798,26.793747 33.267553,35.721311 8.453409,8.439049 12.437304,11.789819 15.034579,12.645279 0.861563,0.28378 2.278041,0.1665 3.148861,-0.26071 z"
    />
    <path
       fill="#ffffff"
       d="m 59.365696,107.80555 c -1.509872,-0.47953 -3.532153,-1.94103 -7.260471,-5.24716 -1.021993,-0.90626 -1.464259,-1.31143 -3.658059,-3.351232 C 45.297928,96.278987 40.406546,91.321156 35.740341,86.327713 21.273096,70.84589 2.64055,50.202195 1.0043774,47.842441 0.77012092,47.504587 0.71217567,47.324736 0.80702248,47.229889 1.1500409,46.886871 2.5186216,47.633284 5.0207841,49.528042 c 2.8392914,2.150048 4.6779699,3.23098 7.2759129,4.277399 2.581852,1.039938 4.823464,1.522174 7.078595,1.522813 4.404944,0.0013 7.443803,-1.952914 9.534444,-6.131188 0.995035,-1.988642 1.084431,-2.7329 1.227588,-10.220254 0.107413,-5.617841 0.2424,-8.179224 0.441549,-8.378373 0.168767,-0.168767 0.532519,0.250422 0.971934,1.120061 0.61623,1.219571 1.624254,3.969713 3.771197,10.28877 5.75138,16.927933 7.585765,21.747765 10.363383,27.229714 3.066245,6.051586 6.84256,10.31002 10.488883,11.827988 1.659587,0.690888 2.46219,0.831465 4.706655,0.824384 2.426063,-0.0077 3.37633,-0.219522 5.303301,-1.182406 4.477843,-2.237523 8.579136,-8.043544 12.418373,-17.580153 1.807879,-4.490742 3.351178,-8.92528 8.668296,-24.907599 6.456463,-19.40699 7.035547,-20.9724 8.105842,-21.912131 0.510165,-0.447929 0.745784,-0.47218 0.876936,-0.09025 0.161985,0.471713 0.0646,3.28162 -0.262683,7.579148 -0.52602,6.907183 -0.619647,8.959567 -0.626289,13.728757 -0.0084,6.040114 0.208603,8.097663 1.073105,10.17429 0.896123,2.152584 2.800014,4.407444 4.393954,5.203943 1.14277,0.57105 1.95681,0.700332 3.92767,0.623775 4.02781,-0.156456 7.50581,-1.409916 11.7803,-4.245586 1.15595,-0.76685 2.39224,-1.541482 2.74729,-1.721403 0.64925,-0.328997 1.13298,-0.371218 1.22005,-0.106486 0.13297,0.404284 -5.95979,7.387751 -17.00605,19.49216 -4.022323,4.407627 -9.387691,10.238334 -10.805834,11.743023 -0.425449,0.451412 -1.646137,1.758297 -2.712642,2.904189 -3.023223,3.248261 -6.160884,6.571614 -9.712964,10.287792 -5.868478,6.139589 -11.908571,11.824261 -14.906103,14.028971 -2.457649,1.80762 -4.371482,2.41267 -5.997781,1.89616 z m 3.401399,-0.63306 c 1.522219,-0.74678 4.886033,-3.49264 8.838253,-7.214603 4.598676,-4.33076 13.550765,-13.589733 21.66325,-22.405874 6.448882,-7.008244 21.236332,-23.431315 24.273582,-26.958447 2.84806,-3.307427 2.6871,-3.374942 -1.41854,-0.595032 -3.16632,2.143902 -4.77552,3.37621 -12.56377,9.621194 C 89.117487,71.200314 86.535973,73.234963 81.777386,76.787835 72.923856,83.398087 67.661987,86.340093 63.343172,87.094733 61.532865,87.411055 59.062191,87.288329 57.155988,86.787397 53.896174,85.930749 50.245953,84.063739 45.034157,80.587335 39.618299,76.974816 33.978027,72.686221 21.863783,62.969679 8.6193892,52.346672 2.5902592,47.854183 2.1580833,48.286359 1.9016171,48.542824 2.4896585,49.23503 11.316102,59.06661 c 16.819621,18.735 24.324798,26.793747 33.267553,35.721311 8.453409,8.439049 12.437304,11.789819 15.034579,12.645279 0.861563,0.28378 2.278041,0.1665 3.148861,-0.26071 z"
    />
    <path
       fill="#ffffff"
       d="m 59.176293,75.864125 c -0.994941,-0.217038 -1.918395,-0.76738 -2.906287,-1.732032 -1.408384,-1.375252 -1.937581,-2.725765 -1.925482,-4.913839 0.02179,-3.940007 2.482749,-6.562994 6.157594,-6.562994 3.714805,0 6.705094,2.86183 6.67379,6.38709 -0.01554,1.749383 -0.85686,3.926508 -2.015237,5.214903 -1.223218,1.360512 -3.863633,2.069493 -5.984378,1.606872 z"
    />
    <path
       fill="#ffffff"
       d="m 59.176293,75.864125 c -0.994941,-0.217038 -1.918395,-0.76738 -2.906287,-1.732032 -1.408384,-1.375252 -1.937581,-2.725765 -1.925482,-4.913839 0.02179,-3.940007 2.482749,-6.562994 6.157594,-6.562994 3.714805,0 6.705094,2.86183 6.67379,6.38709 -0.01554,1.749383 -0.85686,3.926508 -2.015237,5.214903 -1.223218,1.360512 -3.863633,2.069493 -5.984378,1.606872 z"
    />
    <path
       fill="#ffffff"
       d="m 59.176293,75.864125 c -0.994941,-0.217038 -1.918395,-0.76738 -2.906287,-1.732032 -1.408384,-1.375252 -1.937581,-2.725765 -1.925482,-4.913839 0.02179,-3.940007 2.482749,-6.562994 6.157594,-6.562994 3.714805,0 6.705094,2.86183 6.67379,6.38709 -0.01554,1.749383 -0.85686,3.926508 -2.015237,5.214903 -1.223218,1.360512 -3.863633,2.069493 -5.984378,1.606872 z"
    />
    <path
       fill="#ffffff"
       d="m 59.176293,75.864125 c -0.994941,-0.217038 -1.918395,-0.76738 -2.906287,-1.732032 -1.408384,-1.375252 -1.937581,-2.725765 -1.925482,-4.913839 0.02179,-3.940007 2.482749,-6.562994 6.157594,-6.562994 3.714805,0 6.705094,2.86183 6.67379,6.38709 -0.01554,1.749383 -0.85686,3.926508 -2.015237,5.214903 -1.223218,1.360512 -3.863633,2.069493 -5.984378,1.606872 z"
    />
  </g>
</svg>
