<svg version="1.1" xmlns="http://www.w3.org/2000/svg" xmlns:xlink="http://www.w3.org/1999/xlink" x="0px" y="0px" viewBox="0 0 1000 1000" enable-background="new 0 0 1000 1000" xml:space="preserve">
<metadata> Svg Vector Icons : http://www.onlinewebfonts.com/icon </metadata>
<g><path d="M708.5,10c-17,2.8-34,5.5-50.9,8.3c0.8,0.4,1.6,0.8,2.4,1.2c19,14.5,42.7,22.9,61.6,36.7c54.3,39.8,112,111.1,127.9,187.2c7,33.4-5.4,84.8-10.7,113.7c-8.6,47.2,16.8,87,8.3,137.4c-3.6,21.3-24.1,71.7-17.8,77c0-0.8,0-1.6,0-2.4c14.9-14.8,22.2-38.2,33.2-56.9c43.9-75,75.3-162.9,97.1-259.4c8.2-36.5,15.7-98.9,1.2-133.9c-7.4-17.7-25.9-33.7-40.3-45C865.8,30.7,810.2,9.4,708.5,10z"/><path d="M515.4,20.7c-9.1,0.8-18.2,1.6-27.2,2.4c-17,4.7-34,9.5-50.9,14.2c-76.7,33.1-122.1,126.8-126.8,231c17.5-8.7,36.4-18.1,56.9-23.7c103.6-28.2,117.8,38,131.5,117.3c5.2,30.1,6.1,72.6-1.2,101.9c-6.2,24.8-15.8,46.7-24.9,67.5c-7.9,22.5-15.8,45-23.7,67.5c0.4,0,0.8,0,1.2,0c9.8-2.6,20,0.7,27.2,3.6c42.7,16.6,37.9,58.3,37.9,116.1c0,104.2-12.7,245.8,68.7,268.9c24.4,6.9,53.2-1.2,72.3-7.1c103.3-31.9,82.9-155.2,103.1-266.5c5.2-28.9-1-68.5,11.8-90c8.9-15,22.5-17.4,36.7-27.2c-43.2-67.3-91.2-139.3-116.1-223.9c-30-101.9,23-142.7,123.2-136.2C769.5,118,677.7,21.6,515.4,20.7z"/><path d="M210.9,23c-17.4,2-34.8,3.9-52.1,5.9C109.7,41.2,69.7,69.4,51,111.9c-58.2,132,24.4,377.7,68.7,481c15.1,35.1,44,103.6,81.7,112.5c19.5,4.6,31.2-9.8,39.1-17.8c29.2-33.2,58.4-66.3,87.7-99.5c-27.5-32.3-64.6-71.4-53.3-141c2-20.1,3.9-40.3,5.9-60.4c-0.8-36.7-1.6-73.5-2.4-110.2c17.6-114.1,30.4-152.8,86.5-226.3c0-0.4,0-0.8,0-1.2C316.6,40.8,271.7,23.7,210.9,23z"/><path d="M866,640.2c-16.9-3.2-28.6-13.2-43.8-15.4c-20.2,10.8-29.4,12.8-28.4,45c50.4,24.7,146.8-9.4,169.4-36.7C934,636.2,899.9,646.6,866,640.2z"/><path d="M455,628.4c-16.2,17.4-32.4,34.8-48.6,52.1c-20.9,13.6-55.3,18.1-81.7,24.9c0.4,0.8,0.8,1.6,1.2,2.4c55.5,19.4,101.8,15,141-17.8C486.3,673.7,495.6,629.8,455,628.4z"/><path d="M808,361.9c3.6-31.6,7.1-63.2,10.7-94.8c-39.2-1.5-79.7-3.3-96,21.3c-11.6,17.6-7.5,55.3-1.2,75.8c15.7,51,40.5,95.2,65.2,137.4c5.5,11.5,11.1,22.9,16.6,34.4c0.8-0.4,1.6-0.8,2.4-1.2c4.8-25.3,15.9-52.7,10.7-86.5C813.5,419.5,810.8,390.7,808,361.9z M761.1,322.1c-13.8-3.8-19.2-6.6-27.2-15.4c0.7-6.8,1.9-6.7,4.7-10.7c6.4-2.5,10.2-7.1,27.2-8.3c11.8,2,15.7,3.9,21.3,11.8C779.9,313,774.3,313.6,761.1,322.1z"/><path d="M440.8,278.9c-10.5-7.6-26.7-8.5-45-8.3c-15,3.9-30,7.9-45,11.8c-13.8,7.5-27.6,15-41.5,22.5c0.8,29.6,1.6,59.2,2.4,88.8c-4.2,28.5-11.3,63.2-5.9,92.4C316,542.7,353.8,591,419.4,591.7c5.9-18.6,11.8-37.1,17.8-55.7c10-24.3,22.5-47.7,29.6-75.8C479.2,411.3,469.5,299.8,440.8,278.9z M440.1,318.6c-11,25.9-54.4,15.1-55.7-13c0.4-0.8,0.8-1.6,1.2-2.4c3.6-2,7.1-3.9,10.7-5.9c22.3-0.7,33.2,3.1,45,11.8C440.8,312.3,440.5,315.4,440.1,318.6z"/></g>
</svg>
