<svg width="60" height="60" viewBox="0 0 60 60">
    <g transform="translate(3)">
      <path d="M 15.995094,15.024019 16,45 c 0,0 0.06866,3.069018 3.068641,3.058081 L 35,48 c 0,0 2.788427,0.02855 2.997496,-2.964153 L 38,45 V 15 c 0,0 0.01064,-2.979322 -2.989359,-2.982585 L 19,12 c 0,0 -3.005397,0.02402 -3.004906,3.024019 z M 19,10 c 0,0 -5.001756,0.01198 -5.001505,5.011985 L 14,45 c 0,0 0.06459,4.988209 5.06459,4.991025 L 35,50 c 0,0 5.049967,-4.83e-4 5.042969,-4.949219 L 40,15 c 0,0 0.04297,-4.994482 -4.957031,-4.996094 z" />
      <path d="m 24,13 h 6" />
      <path d="m 24,9 h 6" />
      <path d="m 24,47 h 6" />
      <path d="m 24,51 h 6" />
    </g>
</svg>
