<svg x="0px" y="0px" viewBox="0 0 1000 1000">
   <path d="M891.2,792.4c-121,166.5-350.8,240.9-544,173.2C173,909,36.4,750.2,15.3,568.2c-13.8-79.9-3-169.8,57.1-229.8c42.2-46.6,103.2-76.6,166.5-75.5v-0.3c43.8-5.5,47,9.3,17.2,30.9c-107.2,121-98.1,324.2,20.1,435.2c93.1,93,246.4,118.8,364.1,58.9C721.3,814.1,809.1,811.5,891.2,792.4z M305.7,333.3c-91.9,102.1-75.5,275.3,30.2,360.8c25.4-2.7,33.2-79,57.7-108.6c16.1-48.2,70.9-94.6,56.7-145.4c-22.8-51-43.1-120.2-98.2-143.2v-1.2C331.4,299.2,318.1,317.9,305.7,333.3z M478.7,524.5c-25.5,61.1-58.8,122.1-64.4,188.7c8.9,65.5,111,43.3,159.9,32.2c-55.4-61-71.5-144.5-94.4-220.9L478.7,524.5L478.7,524.5z M982.9,419.1C950.7,190.4,732,5.9,500,10.6V9.5C353.5,8.4,210.3,79.4,119.2,193.8c79.9-40,179.8-35.5,255.3,12.2c116.6-52.2,265.3-23.3,354.1,68.8c118.8,114.3,122.1,327.5,3.3,442.9c61,7.8,128.8-2.2,179.8-40C994,621.2,998.5,509,982.9,419.1z M427.6,255.9c71,86.6,82.1,204.3,123.2,305.3C576.4,613.4,593,683.3,653,705.5c65.5-47.7,103.2-127.7,103.2-207.6c3.3-131-111-246.4-240.9-254.2l0.4,1.1C486,242.7,455.9,246.8,427.6,255.9z"/>
</svg>
