<?xml version="1.0" encoding="utf-8"?>
<!-- Svg Vector Icons : http://www.onlinewebfonts.com/icon -->
<!DOCTYPE svg PUBLIC "-//W3C//DTD SVG 1.1//EN" "http://www.w3.org/Graphics/SVG/1.1/DTD/svg11.dtd">
<svg version="1.1" xmlns="http://www.w3.org/2000/svg" xmlns:xlink="http://www.w3.org/1999/xlink" x="0px" y="0px" viewBox="0 0 1000 1000" enable-background="new 0 0 1000 1000" xml:space="preserve">
<metadata> Svg Vector Icons : http://www.onlinewebfonts.com/icon </metadata>
<g><g transform="translate(0.000000,564.000000) scale(0.100000,-0.100000)"><path d="M965.3,4917.3C672.8,4853,432.4,4686,270,4434.8c-33.7-52.1-76.6-133.3-95-182.3c-75-202.2-75-193-75-2035.5c0-1013.9,6.1-1802.7,15.3-1909.9C201.1-726.5,633-1659.3,1362-2389.8c675.4-673.9,1520.8-1095.1,2498-1242.1c162.3-24.5,295.6-27.6,1141-27.6c1026.2,0,1082.8,3.1,1470.3,87.3C8310.7-3177,9686.1-1654.7,9880.6,197c18.4,182.3,21.4,517.7,18.4,2047.7l-4.6,1830.2l-42.9,122.5c-98,275.7-300.2,505.4-552.9,627.9c-258.8,124.1,101.1,114.9-4308.3,113.3C1787.8,4938.7,1040.4,4934.1,965.3,4917.3z M7848.2,3474.6c425.8-105.7,781.1-197.6,787.2-203.7c7.7-6.1-78.1-358.4-189.9-784.2l-202.2-773.4L7621.5,1871c-341.5,88.8-693.8,177.7-782.6,200.6c-88.8,21.4-163.9,42.9-166.9,44.4c-12.2,10.7,372.2,1553,386,1553C7067.1,3669.1,7422.4,3581.8,7848.2,3474.6z M3366.8,1884.8c4.6-842.4,7.7-912.8,36.8-1041.5c136.3-601.9,574.3-1059.8,1171.7-1226.8c176.1-49,499.3-65.9,683.1-36.8c537.6,85.8,998.6,431.9,1228.3,923.5c75,160.8,116.4,312.4,140.9,510l18.4,159.3h808.7h808.7v-127.1c0-620.3-281.8-1366.2-716.8-1899.1c-110.3-134.8-358.4-379.8-493.2-487c-438-350.7-997.1-592.7-1577.5-681.5c-235.9-35.2-707.6-36.8-941.9,0c-738.2,113.3-1383,442.6-1893,969.5c-444.2,457.9-730.6,1015.4-859.2,1674c-32.2,170-33.7,214.4-39.8,1176.2l-4.6,998.6l811.7-3.1l811.7-4.6L3366.8,1884.8z"/></g></g>
</svg>