<svg viewBox="0 0 504 504">
   <path 
      d="M457.3,251.9c-9.2,58.5-27.1,75.6-58.8,114.9c-31.7,33.3-77.3,88.9-141.9,85.8  c-58.5-9.2-75.6-27.1-114.9-58.8c-33.3-31.7-88.9-77.3-85.8-141.9c9.2-58.5,27.1-75.6,58.8-114.9c31.7-33.3,77.3-88.9,141.9-85.8  c58.5,9.2,75.6,27.1,114.9,58.8C404.8,141.7,460.4,187.3,457.3,251.9z" 
      fill="#3765AF"
   />
   <g>
      <path 
         d="M230.3,156c0,4.4,0,8.8,0,13.2c0,1.1-0.3,1.4-1.4,1.6c-7.4,0.8-14.8,1.7-22.2,2.5c-1,0.1-1.5,0.4-1.8,1.4   c-4.8,14.1-8.3,28.5-10.2,43.3c-1.2,9.1-1.8,18.2-2,27.3c-0.2,9.6-0.1,19.1,0.7,28.7c1.4,18.4,5.1,36.5,11,54   c0.2,0.5,0.4,1,0.5,1.5c0.2,0.9,0.8,1.2,1.6,1.3c7,0.7,14,1.5,21,2.3c2.7,0.3,2.8,0.3,2.8,3c0,8.3,0,16.6,0,24.9   c0,1.8,0,1.9-1.8,1.8c-9.9-0.5-19.8-1.1-29.7-2.1c-6.1-0.7-12.2-1.4-18.3-2c-1-0.1-1.4-0.5-1.7-1.4c-6.5-17.3-11.3-35-14.3-53.3   c-3.6-21-4.4-42.2-3.9-63.5c0.9-32.2,6.8-63.4,18.2-93.5c0.4-1,0.9-1.4,1.9-1.5c6.5-0.7,13-1.4,19.6-2.1c6.8-0.7,13.5-1.2,20.3-1.6   c2.8-0.2,5.5-0.2,8.3-0.4c1.2-0.1,1.5,0.4,1.5,1.5C230.3,147.2,230.3,151.6,230.3,156z" fill="#FFFFFF"/><path d="M352.7,252.5c0,35.7-5.2,67.8-16.2,99c-0.7,1.9-1.4,3.9-2.1,5.8c-0.3,0.8-0.7,1.1-1.5,1.2   c-11.5,1.3-23.1,2.7-34.7,3.4c-4.4,0.3-8.9,0.5-13.3,0.8c-1.3,0.1-1.7-0.3-1.7-1.6c0-8.7,0-17.4,0-26.2c0-1.2,0.3-1.7,1.5-1.8   c5.5-0.6,11-1.2,16.5-1.8c1.9-0.2,3.8-0.4,5.7-0.6c1.1-0.1,1.4-0.8,1.6-1.7c2-6,3.9-12.1,5.4-18.3c2.3-9.1,4-18.3,5-27.6   c0.9-7.4,1.3-14.9,1.5-22.4c0.2-8.9,0.2-17.7-0.4-26.6c-0.8-13-2.6-25.8-5.6-38.5c-1.7-7-3.7-13.9-6-20.7c-0.4-1.1-0.9-1.5-2.1-1.6   c-7.4-0.8-14.7-1.7-22.1-2.5c-0.9-0.1-1.2-0.4-1.2-1.3c0-9,0-17.9,0-26.9c0-1.1,0.5-1.4,1.5-1.3c4.3,0.2,8.5,0.4,12.8,0.7   c8,0.5,16.1,1.3,24.1,2.2c3.8,0.4,7.6,0.9,11.4,1.3c0.8,0.1,1.2,0.4,1.5,1.2c5.7,15.2,10.1,30.8,13.2,46.8   c2,10.2,3.3,20.5,4.2,30.9C352.6,234.5,352.9,244.8,352.7,252.5z" fill="#FFFFFF"/><path d="M254.7,239.8c1.7-4.1,3.2-7.8,4.7-11.5c3-7.3,5.7-14.8,8.3-22.2c0.3-0.8,0.6-1.2,1.6-1.2   c7.5,0.6,14.9,1.5,22.3,2.8c2,0.4,2,0.3,1.5,2.3c-5.1,18.9-13.1,36.7-22.1,54c-0.3,0.7-0.6,1.4-1.1,2c-1.8,2.2-1.4,4.3-0.1,6.8   c5.1,9.8,10.3,19.6,15.8,29.2c0.3,0.6,1.1,1.4-0.3,1.6c-8.2,1.2-16.5,2.1-24.8,2.3c-0.9,0-1.4-0.3-1.8-1   c-10.2-16.3-19.5-33-26.9-50.8c-6-14.3-10.8-29-13.4-44.3c-0.2-1.2-0.1-1.7,1.3-1.9c6.6-1.1,13.1-2,19.8-2.6c1.4-0.1,2,0.3,2.5,1.7   c3.6,10.6,7.7,21,12,31.2C254.1,238.5,254.3,238.9,254.7,239.8z" 
         fill="#ffffff"
      />
   </g>
</svg>
